<svg width="20" height="20" viewBox="0 0 20 20" fill="none" xmlns="http://www.w3.org/2000/svg">
<path fill-rule="evenodd" clip-rule="evenodd" d="M2.75207 1.9456C2.75207 1.52974 3.08918 1.19263 3.50504 1.19263C3.92089 1.19263 4.25801 1.52974 4.25801 1.9456V3.61757C4.25804 4.03344 3.9209 4.37056 3.50504 4.37056C3.08918 4.37056 2.75207 4.03344 2.75207 3.61759V1.9456ZM3.50504 0.606689C2.76558 0.606689 2.16613 1.20614 2.16613 1.9456V2.18446H1.55C0.694057 2.18446 0 2.87852 0 3.73446V8.1388C0 8.3006 0.131167 8.43177 0.292969 8.43177C0.454771 8.43177 0.585938 8.3006 0.585938 8.1388V6.89071H19.4141V17.8437C19.4141 18.376 18.9825 18.8075 18.4502 18.8075H16.208C16.0462 18.8075 15.915 18.9387 15.915 19.1005C15.915 19.2623 16.0462 19.3935 16.208 19.3935H18.4502C19.3061 19.3935 20 18.6996 20 17.8437V3.73446C20 2.87852 19.3059 2.18446 18.45 2.18446H17.8339V1.9456C17.8339 1.20614 17.2344 0.606689 16.495 0.606689C15.7555 0.606689 15.1561 1.20614 15.1561 1.9456V2.18446H11.3389V1.9456C11.3389 1.20614 10.7395 0.606689 10 0.606689C9.26054 0.606689 8.66109 1.20614 8.66109 1.9456V2.18446H4.84395V1.9456C4.84395 1.20614 4.2445 0.606689 3.50504 0.606689ZM4.84395 2.7704V3.61753C4.84398 4.35704 4.24448 4.95649 3.50504 4.95649C2.76558 4.95649 2.16613 4.35705 2.16613 3.61759V2.7704H1.55C1.01766 2.7704 0.585938 3.20212 0.585938 3.73446V6.30477H19.4141V3.73446C19.4141 3.20212 18.9823 2.7704 18.45 2.7704H17.8339V3.61755C17.8339 4.35704 17.2344 4.95649 16.495 4.95649C15.7555 4.95649 15.1561 4.35705 15.1561 3.61759V2.7704H11.3389V3.61755C11.3389 4.35704 10.7395 4.95649 10 4.95649C9.26054 4.95649 8.66109 4.35705 8.66109 3.61759V2.7704H4.84395ZM9.24703 1.9456C9.24703 1.52974 9.58415 1.19263 10 1.19263C10.4159 1.19263 10.753 1.52974 10.753 1.9456V3.61755C10.753 4.03345 10.4158 4.37056 10 4.37056C9.58415 4.37056 9.24703 4.03344 9.24703 3.61759V1.9456ZM15.742 1.9456C15.742 1.52974 16.0791 1.19263 16.495 1.19263C16.9108 1.19263 17.2479 1.52974 17.2479 1.9456V3.61755C17.2479 4.03345 16.9108 4.37056 16.495 4.37056C16.0791 4.37056 15.742 4.03344 15.742 3.61759V1.9456ZM2.49809 9.60087C2.50937 9.58959 2.52467 9.58325 2.54063 9.58325H4.26828C4.28423 9.58325 4.29954 9.58959 4.31082 9.60087C4.3221 9.61215 4.32844 9.62745 4.32844 9.64341V11.3711C4.32844 11.379 4.32688 11.3868 4.32386 11.3941C4.32084 11.4014 4.31641 11.408 4.31083 11.4136C4.30525 11.4192 4.29862 11.4236 4.29133 11.4266C4.28403 11.4297 4.27622 11.4312 4.26832 11.4312H2.54063C2.53272 11.4312 2.5249 11.4297 2.5176 11.4266C2.51031 11.4236 2.50367 11.4192 2.49809 11.4136C2.4925 11.408 2.48807 11.4014 2.48505 11.3941C2.48202 11.3868 2.48047 11.379 2.48047 11.3711V9.64341C2.48047 9.62745 2.48681 9.61215 2.49809 9.60087ZM2.54063 8.99731C2.36927 8.99731 2.20493 9.06538 2.08377 9.18655C1.9626 9.30772 1.89453 9.47205 1.89453 9.64341V11.3711C1.89453 11.4559 1.91124 11.5399 1.94371 11.6183C1.97618 11.6967 2.02377 11.7679 2.08377 11.8279C2.14376 11.8879 2.21499 11.9355 2.29338 11.968C2.37177 12.0004 2.45578 12.0172 2.54063 12.0172H4.26832C4.35317 12.0172 4.43718 12.0004 4.51557 11.968C4.59396 11.9355 4.66518 11.8879 4.72518 11.8279C4.78517 11.7679 4.83275 11.6967 4.86522 11.6183C4.89768 11.5399 4.91438 11.4559 4.91437 11.371V9.64341C4.91437 9.47205 4.8463 9.30772 4.72514 9.18655C4.60397 9.06538 4.43964 8.99731 4.26828 8.99731H2.54063ZM6.89512 9.60087C6.9064 9.58959 6.9217 9.58325 6.93766 9.58325H8.66531C8.68127 9.58325 8.69657 9.58959 8.70785 9.60087C8.71913 9.61215 8.72547 9.62745 8.72547 9.64341V11.3711C8.72547 11.379 8.72391 11.3868 8.72089 11.3941C8.71787 11.4014 8.71343 11.408 8.70785 11.4136C8.70226 11.4192 8.69563 11.4236 8.68833 11.4266C8.68104 11.4297 8.67322 11.4312 8.66531 11.4312H6.93766C6.92975 11.4312 6.92193 11.4297 6.91464 11.4266C6.90734 11.4236 6.90071 11.4192 6.89512 11.4136C6.88953 11.408 6.8851 11.4014 6.88208 11.3941C6.87906 11.3868 6.8775 11.379 6.8775 11.3711V9.64341C6.8775 9.62745 6.88384 9.61215 6.89512 9.60087ZM6.93766 8.99731C6.7663 8.99731 6.60196 9.06538 6.4808 9.18655C6.35963 9.30772 6.29156 9.47205 6.29156 9.64341V11.3711C6.29156 11.4559 6.30828 11.5399 6.34074 11.6183C6.37321 11.6967 6.4208 11.7679 6.4808 11.8279C6.54079 11.8879 6.61202 11.9355 6.69041 11.968C6.7688 12.0004 6.85281 12.0172 6.93766 12.0172H8.66531C8.75016 12.0172 8.83417 12.0004 8.91256 11.968C8.99095 11.9355 9.06217 11.8879 9.12217 11.8279C9.18217 11.7679 9.22976 11.6967 9.26223 11.6183C9.29469 11.5399 9.31141 11.4559 9.31141 11.3711V9.64341C9.31141 9.47205 9.24334 9.30772 9.12217 9.18655C9.001 9.06538 8.83667 8.99731 8.66531 8.99731H6.93766ZM11.2922 9.60087C11.3034 9.58959 11.3187 9.58325 11.3347 9.58325H13.0623C13.0783 9.58325 13.0936 9.58959 13.1049 9.60087C13.1162 9.61215 13.1225 9.62745 13.1225 9.64341V11.3711C13.1225 11.379 13.1209 11.3868 13.1179 11.3941C13.1149 11.4014 13.1105 11.408 13.1049 11.4136C13.0993 11.4192 13.0927 11.4236 13.0854 11.4266C13.0781 11.4297 13.0702 11.4312 13.0623 11.4312H11.3347C11.3268 11.4312 11.319 11.4297 11.3117 11.4266C11.3044 11.4236 11.2977 11.4192 11.2922 11.4136C11.2866 11.408 11.2821 11.4014 11.2791 11.3941C11.2761 11.3868 11.2745 11.379 11.2745 11.3711V9.64341C11.2745 9.62745 11.2809 9.61215 11.2922 9.60087ZM11.3347 8.99731C11.1633 8.99731 10.999 9.06538 10.8778 9.18655C10.7567 9.30772 10.6886 9.47205 10.6886 9.64341V11.3711C10.6886 11.4559 10.7053 11.5399 10.7378 11.6183C10.7702 11.6967 10.8178 11.7679 10.8778 11.8279C10.9378 11.8879 11.009 11.9355 11.0874 11.968C11.1658 12.0004 11.2498 12.0172 11.3347 12.0172H13.0623C13.1472 12.0172 13.2312 12.0004 13.3096 11.968C13.388 11.9355 13.4592 11.8879 13.5192 11.8279C13.5792 11.7679 13.6268 11.6967 13.6593 11.6183C13.6917 11.5399 13.7084 11.4559 13.7084 11.3711V9.64341C13.7084 9.47205 13.6404 9.30772 13.5192 9.18655C13.398 9.06538 13.2337 8.99731 13.0623 8.99731H11.3347ZM15.6892 9.60087C15.7005 9.58959 15.7158 9.58325 15.7317 9.58325H17.4594C17.4753 9.58325 17.4906 9.58959 17.5019 9.60087C17.5132 9.61215 17.5195 9.62745 17.5195 9.64341V11.3711C17.5195 11.379 17.518 11.3868 17.515 11.3941C17.5119 11.4014 17.5075 11.408 17.5019 11.4136C17.4963 11.4192 17.4897 11.4236 17.4824 11.4266C17.4751 11.4297 17.4673 11.4312 17.4594 11.4312H15.7317C15.7238 11.4312 15.716 11.4297 15.7087 11.4266C15.7014 11.4236 15.6948 11.4192 15.6892 11.4136C15.6836 11.408 15.6792 11.4014 15.6761 11.3941C15.6731 11.3868 15.6716 11.379 15.6716 11.3711V9.64341C15.6716 9.62745 15.6779 9.61215 15.6892 9.60087ZM15.7317 8.99731C15.5604 8.99731 15.396 9.06538 15.2749 9.18655C15.1537 9.30772 15.0856 9.47205 15.0856 9.64341V11.3711C15.0856 11.4559 15.1023 11.5399 15.1348 11.6183C15.1673 11.6967 15.2149 11.7679 15.2749 11.8279C15.3349 11.8879 15.4061 11.9355 15.4845 11.968C15.5629 12.0004 15.6469 12.0172 15.7317 12.0172H17.4594C17.5442 12.0172 17.6282 12.0004 17.7066 11.968C17.785 11.9355 17.8562 11.8879 17.9162 11.8279C17.9762 11.7679 18.0238 11.6967 18.0563 11.6183C18.0888 11.5399 18.1055 11.4559 18.1055 11.3711V9.64341C18.1055 9.47205 18.0374 9.30772 17.9162 9.18655C17.7951 9.06538 17.6307 8.99731 17.4594 8.99731H15.7317ZM2.49809 14.2847C2.50937 14.2734 2.52467 14.267 2.54063 14.267H4.26828C4.28424 14.267 4.29954 14.2734 4.31082 14.2847C4.3221 14.2959 4.32844 14.3112 4.32844 14.3272V16.0549C4.32844 16.0628 4.32688 16.0706 4.32386 16.0779C4.32084 16.0852 4.31641 16.0918 4.31083 16.0974C4.30525 16.103 4.29862 16.1074 4.29133 16.1104C4.28403 16.1135 4.27622 16.115 4.26832 16.115H2.54063C2.52467 16.115 2.50937 16.1087 2.49809 16.0974C2.48681 16.0861 2.48047 16.0708 2.48047 16.0549V14.3272C2.48047 14.3112 2.48681 14.2959 2.49809 14.2847ZM2.54063 13.6811C2.36927 13.6811 2.20494 13.7492 2.08377 13.8703C1.9626 13.9915 1.89453 14.1558 1.89453 14.3272V16.0549C1.89453 16.2262 1.9626 16.3905 2.08377 16.5117C2.20494 16.6329 2.36927 16.7009 2.54063 16.7009H4.26832C4.35317 16.7009 4.43718 16.6842 4.51557 16.6518C4.59396 16.6193 4.66518 16.5717 4.72518 16.5117C4.78517 16.4517 4.83275 16.3805 4.86522 16.3021C4.89768 16.2237 4.91438 16.1397 4.91437 16.0548V14.3272C4.91437 14.1558 4.8463 13.9915 4.72514 13.8703C4.60397 13.7492 4.43963 13.6811 4.26828 13.6811H2.54063ZM6.89512 14.2847C6.9064 14.2734 6.9217 14.267 6.93766 14.267H8.66531C8.68127 14.267 8.69657 14.2734 8.70785 14.2847C8.71913 14.2959 8.72547 14.3112 8.72547 14.3272V16.0549C8.72547 16.0708 8.71913 16.0861 8.70785 16.0974C8.69657 16.1087 8.68127 16.115 8.66531 16.115H6.93766C6.9217 16.115 6.9064 16.1087 6.89512 16.0974C6.88384 16.0861 6.8775 16.0708 6.8775 16.0549V14.3272C6.8775 14.3112 6.88384 14.2959 6.89512 14.2847ZM6.93766 13.6811C6.7663 13.6811 6.60197 13.7492 6.4808 13.8703C6.35963 13.9915 6.29156 14.1558 6.29156 14.3272V16.0549C6.29156 16.2262 6.35963 16.3905 6.4808 16.5117C6.60197 16.6329 6.7663 16.7009 6.93766 16.7009H8.66531C8.83667 16.7009 9.001 16.6329 9.12217 16.5117C9.24334 16.3905 9.31141 16.2262 9.31141 16.0549V14.3272C9.31141 14.1558 9.24334 13.9915 9.12217 13.8703C9.001 13.7492 8.83667 13.6811 8.66531 13.6811H6.93766ZM11.2922 14.2847C11.3034 14.2734 11.3187 14.267 11.3347 14.267H13.0623C13.0783 14.267 13.0936 14.2734 13.1049 14.2847C13.1162 14.2959 13.1225 14.3112 13.1225 14.3272V16.0549C13.1225 16.0708 13.1162 16.0861 13.1049 16.0974C13.0936 16.1087 13.0783 16.115 13.0623 16.115H11.3347C11.3187 16.115 11.3034 16.1087 11.2922 16.0974C11.2809 16.0861 11.2745 16.0708 11.2745 16.0549V14.3272C11.2745 14.3112 11.2809 14.2959 11.2922 14.2847ZM11.3347 13.6811C11.1633 13.6811 10.999 13.7492 10.8778 13.8703C10.7567 13.9915 10.6886 14.1558 10.6886 14.3272V16.0549C10.6886 16.2262 10.7567 16.3905 10.8778 16.5117C10.999 16.6329 11.1633 16.7009 11.3347 16.7009H13.0623C13.2337 16.7009 13.398 16.6329 13.5192 16.5117C13.6404 16.3905 13.7084 16.2262 13.7084 16.0549V14.3272C13.7084 14.1558 13.6404 13.9915 13.5192 13.8703C13.398 13.7492 13.2337 13.6811 13.0623 13.6811H11.3347ZM15.6892 14.2847C15.7005 14.2734 15.7158 14.267 15.7317 14.267H17.4594C17.4753 14.267 17.4906 14.2734 17.5019 14.2847C17.5132 14.2959 17.5195 14.3112 17.5195 14.3272V16.0549C17.5195 16.0708 17.5132 16.0861 17.5019 16.0974C17.4906 16.1087 17.4753 16.115 17.4594 16.115H15.7317C15.7158 16.115 15.7005 16.1087 15.6892 16.0974C15.6779 16.0861 15.6716 16.0708 15.6716 16.0549V14.3272C15.6716 14.3112 15.6779 14.2959 15.6892 14.2847ZM15.7317 13.6811C15.5604 13.6811 15.396 13.7492 15.2749 13.8703C15.1537 13.9915 15.0856 14.1558 15.0856 14.3272V16.0549C15.0856 16.2262 15.1537 16.3905 15.2749 16.5117C15.396 16.6329 15.5604 16.7009 15.7317 16.7009H17.4594C17.6307 16.7009 17.7951 16.6329 17.9162 16.5117C18.0374 16.3905 18.1055 16.2262 18.1055 16.0549V14.3272C18.1055 14.1558 18.0374 13.9915 17.9162 13.8703C17.7951 13.7492 17.6307 13.6811 17.4594 13.6811H15.7317ZM0.585938 9.40743C0.585938 9.24563 0.454771 9.11446 0.292969 9.11446C0.131167 9.11446 0 9.24563 0 9.40743V17.8437C0 18.6996 0.693861 19.3935 1.5498 19.3935H14.8203C14.9821 19.3935 15.1133 19.2623 15.1133 19.1005C15.1133 18.9387 14.9821 18.8075 14.8203 18.8075H1.5498C1.01747 18.8075 0.585938 18.376 0.585938 17.8437V9.40743Z" fill="black" fill-opacity="0.85"/>
</svg>
