<svg width="28" height="28" viewBox="0 0 28 28" fill="none" xmlns="http://www.w3.org/2000/svg">
<g clip-path="url(#clip0_154_156)">
<path d="M24.3697 0.666748H3.62898C1.99935 0.666748 0.666016 2.00008 0.666016 3.62971V24.3705C0.666016 26.0016 1.99935 27.3334 3.62898 27.3334H13.9993V16.963H11.0364V13.2964H13.9993V10.2593C13.9993 7.05341 15.7949 4.80156 19.5786 4.80156L22.2497 4.80453V8.66378H20.4764C19.0038 8.66378 18.4438 9.76897 18.4438 10.7942V13.2979H22.2482L21.4068 16.963H18.4438V27.3334H24.3697C25.9993 27.3334 27.3327 26.0016 27.3327 24.3705V3.62971C27.3327 2.00008 25.9993 0.666748 24.3697 0.666748Z" fill="#001336" fill-opacity="0.8"/>
</g>
<defs>
<clipPath id="clip0_154_156">
<rect x="0.666016" y="0.666748" width="26.6667" height="26.6667" rx="7" fill="white"/>
</clipPath>
</defs>
</svg>
