<svg width="20" height="20" viewBox="0 0 20 20" fill="none" xmlns="http://www.w3.org/2000/svg">
<g clip-path="url(#clip0_154_355)">
<path d="M19.5389 5.14239H17.4723V2.26731C17.4723 2.23783 17.4679 2.20851 17.4593 2.18032H18.7459C19.3471 2.18032 19.8362 1.69125 19.8362 1.09008C19.8361 0.489065 19.3471 2.8336e-06 18.7459 2.8336e-06H14.9945C14.7638 -0.000524884 14.539 0.0726702 14.3529 0.208909L3.04749 8.43993C3.01591 8.4629 2.98918 8.49187 2.9688 8.52518C2.94843 8.55849 2.93482 8.59549 2.92876 8.63407C2.92269 8.67264 2.92429 8.71203 2.93345 8.74999C2.94262 8.78794 2.95917 8.82372 2.98217 8.85528C3.00515 8.88685 3.03412 8.91359 3.06743 8.93396C3.10074 8.95433 3.13774 8.96794 3.17632 8.974C3.21489 8.98007 3.25428 8.97847 3.29224 8.96931C3.33019 8.96014 3.36597 8.94359 3.39753 8.92059L14.7029 0.689534C14.7875 0.627665 14.8897 0.594411 14.9945 0.594612H18.746C19.0192 0.594612 19.2415 0.8168 19.2415 1.09008C19.2415 1.36336 19.0192 1.58555 18.746 1.58555H15.2525C15.1896 1.58555 15.1283 1.60555 15.0775 1.64258L1.38131 11.6144C1.2969 11.6762 1.19496 11.7095 1.09034 11.7093C0.929674 11.7093 0.783502 11.635 0.689166 11.5055C0.528346 11.2845 0.577174 10.974 0.797994 10.8132L2.30128 9.71883C2.33284 9.69586 2.35958 9.66688 2.37995 9.63357C2.40032 9.60026 2.41392 9.56326 2.41999 9.52469C2.42605 9.48612 2.42446 9.44673 2.4153 9.40877C2.40613 9.37082 2.38958 9.33504 2.36659 9.30348C2.34361 9.27191 2.31464 9.24517 2.28133 9.2248C2.24802 9.20443 2.21102 9.19082 2.17245 9.18475C2.13387 9.17869 2.09448 9.18028 2.05653 9.18945C2.01857 9.19861 1.98279 9.21517 1.95124 9.23817L0.448033 10.3325C-0.0379042 10.6863 -0.145443 11.3695 0.208424 11.8555C0.412877 12.1363 0.742643 12.3039 1.09038 12.3039C1.32084 12.3043 1.54542 12.2312 1.73139 12.095L2.19756 11.7557V15.0682H0.983424C0.535885 15.0682 0.171783 15.4323 0.171783 15.8798C0.171783 16.3273 0.535846 16.6914 0.983424 16.6914H1.06397V19.7028C1.06397 19.867 1.19717 20 1.36139 20H19.5389C19.5779 20 19.6166 19.9923 19.6526 19.9774C19.6887 19.9625 19.7215 19.9406 19.7491 19.9129C19.7767 19.8853 19.7986 19.8526 19.8135 19.8165C19.8284 19.7804 19.8361 19.7418 19.8361 19.7027V13.1572C19.8366 13.1179 19.8292 13.0789 19.8145 13.0424C19.7997 13.0059 19.7779 12.9727 19.7502 12.9448C19.7226 12.9168 19.6897 12.8946 19.6534 12.8794C19.6171 12.8643 19.5781 12.8565 19.5388 12.8565C19.4995 12.8565 19.4605 12.8643 19.4242 12.8794C19.3879 12.8946 19.355 12.9168 19.3273 12.9448C19.2997 12.9727 19.2779 13.0059 19.2631 13.0424C19.2484 13.0789 19.241 13.1179 19.2415 13.1572V19.4054H1.65862V16.6915H5.90577C5.9448 16.6915 5.98346 16.6838 6.01952 16.6689C6.05558 16.6539 6.08835 16.632 6.11595 16.6044C6.14355 16.5768 6.16545 16.544 6.18038 16.508C6.19532 16.4719 6.203 16.4333 6.20299 16.3942V13.3829H10.4501C10.6143 13.3829 10.7474 13.2497 10.7474 13.0855V10.0742H14.9945C15.0335 10.0742 15.0722 10.0665 15.1082 10.0516C15.1443 10.0366 15.1771 10.0147 15.2047 9.98714C15.2323 9.95954 15.2542 9.92677 15.2691 9.89071C15.2841 9.85465 15.2917 9.81599 15.2917 9.77696V6.76563H19.2415V11.968C19.2424 12.0462 19.2741 12.121 19.3298 12.176C19.3854 12.231 19.4605 12.2619 19.5388 12.2619C19.6171 12.2619 19.6922 12.231 19.7478 12.176C19.8035 12.121 19.8352 12.0462 19.8361 11.968V5.43961C19.8361 5.40057 19.8284 5.36192 19.8135 5.32585C19.7986 5.28978 19.7767 5.25701 19.7491 5.2294C19.7215 5.2018 19.6887 5.1799 19.6526 5.16496C19.6166 5.15003 19.5779 5.14234 19.5389 5.14235V5.14239ZM5.60839 16.0968H0.983385C0.863775 16.0968 0.766432 15.9995 0.766432 15.8798C0.766432 15.7602 0.863775 15.6629 0.983424 15.6629H5.60835L5.60839 16.0968ZM5.60839 15.0682H2.79217V11.3227L7.09088 8.19297V11.7597H5.5278C5.08026 11.7597 4.71616 12.1238 4.71616 12.5711C4.71616 13.0187 5.08022 13.3828 5.5278 13.3828H5.60835L5.60839 15.0682ZM10.1527 12.7881H5.5278C5.40815 12.7881 5.31081 12.6909 5.31081 12.5713C5.31081 12.4517 5.40815 12.3543 5.5278 12.3543H10.1527V12.7881ZM10.1527 11.7597H7.68553V7.76004L11.9841 4.63028V8.45094H10.0722C9.62463 8.45094 9.26053 8.815 9.26053 9.26254C9.26053 9.71008 9.6246 10.0741 10.0722 10.0741H10.1527V11.7597ZM14.6971 9.47954H10.0722C9.95253 9.47954 9.85518 9.38219 9.85518 9.26254C9.85518 9.14289 9.95253 9.04555 10.0722 9.04555H14.6971V9.47954ZM14.6971 8.4511H12.5787V4.19739L15.3492 2.18032H16.8905C16.8819 2.20851 16.8775 2.23783 16.8776 2.26731V5.14239H14.6165C14.169 5.14239 13.8049 5.50645 13.8049 5.95399C13.8049 6.40153 14.169 6.76559 14.6165 6.76559H14.6971V8.4511ZM14.6165 6.17098C14.4969 6.17098 14.3996 6.0736 14.3996 5.95399C14.3996 5.83438 14.4969 5.737 14.6165 5.737H19.2415V6.17098H14.6165Z" fill="black" fill-opacity="0.65"/>
</g>
<defs>
<clipPath id="clip0_154_355">
<rect width="20" height="20" fill="white"/>
</clipPath>
</defs>
</svg>
