<svg width="452" height="38" viewBox="0 0 452 38" fill="none" xmlns="http://www.w3.org/2000/svg">
<path fill-rule="evenodd" clip-rule="evenodd" d="M32.1221 13.3525H42.1867L32.1221 2.08125L21.9672 13.3229L32.1221 13.3525ZM32.1221 18.8254H47.4299C47.4299 18.8254 44.4165 15.305 44.4165 15.5121H19.8277C19.8277 15.305 16.8144 18.8254 16.8144 18.8254H32.1221ZM32.1221 0.75C42.3675 0.75 64.2442 5.30583 64.2442 19.0325C64.2442 30.0671 48.9968 34.8892 48.0626 34.9188C47.8819 34.9188 47.8819 29.0021 47.701 26.0438C47.5203 23.0854 46.0739 22.7008 44.4467 22.7008C43.6681 22.7617 42.9372 23.093 42.385 23.6351C41.8327 24.1773 41.4953 24.8949 41.4333 25.6592C41.4333 26.9904 41.4333 36.7529 41.4333 36.7529L35.7984 37.5517V26.2804C35.7984 23.0558 33.7493 22.8488 32.3029 22.8192C30.8565 22.7896 28.6267 23.0558 28.6267 26.2804C28.6267 30.4813 28.6267 37.5221 28.6267 37.5221L22.9917 36.7233C22.9917 36.7233 22.9917 26.9608 22.9917 25.6296C22.9297 24.8653 22.5923 24.1477 22.0401 23.6055C21.4878 23.0634 20.7569 22.7321 19.9784 22.6713C18.3512 22.6713 16.9651 23.2038 16.724 26.0142C16.4829 28.8246 16.5432 34.7413 16.3624 34.8892C15.2475 34.8892 0 30.0671 0 19.0325C0 5.30583 21.8768 0.75 32.1221 0.75ZM33.448 1.93333C41.0306 1.95297 48.413 4.324 54.5413 8.70792C56.8682 10.477 58.7541 12.7432 60.0557 15.3346C60.6407 17.0195 60.8597 18.8061 60.6989 20.5792C60.538 22.3523 60.0007 24.0727 59.1216 25.6296C57.5848 27.9667 53.577 31.5463 52.3717 31.5463V24.0321C52.9079 24.8186 53.7168 25.3871 54.648 25.632C55.5792 25.8768 56.5693 25.7814 57.4341 25.3633C59.001 24.3575 59.3626 21.4879 56.4096 19.6833V19.3579H58.4586V19.0029C54.5413 16.6658 48.1832 12.1988 45.1096 10.1279C42.6688 8.32333 36.7928 4.59583 33.448 1.93333ZM30.7963 1.93333C23.2117 1.94078 15.8255 4.31301 9.70293 8.70792C7.35914 10.4634 5.45282 12.7194 4.12827 15.305C3.53006 16.9877 3.30396 18.7762 3.46503 20.5514C3.62611 22.3265 4.17065 24.0476 5.0624 25.6C6.6896 27.9667 10.6371 31.5167 11.8424 31.5167V24.0321C11.3062 24.8186 10.4973 25.3871 9.5661 25.632C8.63492 25.8768 7.64486 25.7814 6.78 25.3633C5.18293 24.4167 4.85146 21.4583 7.7744 19.6833V19.3579H5.75546V19.0029C9.6728 16.6658 16.0008 12.1988 19.1045 10.1279C21.5755 8.32333 27.4515 4.59583 30.7963 1.90375V1.93333Z" fill="#001336"/>
<path fill-rule="evenodd" clip-rule="evenodd" d="M109.233 28.4103V9.86157H114.988V16.7841H118.001L125.776 9.86157H133.671L122.853 19.0324L134.756 28.4103H126.559L117.881 21.2807H114.868V28.4103H109.233ZM88.3804 21.2216H96.426L92.2977 13.8257L88.3804 21.2216ZM77.9844 28.4103L88.6214 9.86157H96.426L106.732 28.4103H100.343L98.475 25.097H86.271L84.3726 28.4103H77.9844Z" fill="#001336"/>
<path fill-rule="evenodd" clip-rule="evenodd" d="M167.481 9.86175H188.394V14.0626H173.146V17.2576H187.52V20.9259H173.146V24.2097H188.575V28.4105H167.481V9.86175ZM156.362 21.4584H161.907V22.2868C161.981 23.5766 161.775 24.8672 161.304 26.0734C160.988 26.6184 160.555 27.0889 160.035 27.4518C159.514 27.8147 158.919 28.0611 158.291 28.1738C157.187 28.378 156.068 28.4869 154.946 28.4993C153.921 28.4993 151.932 28.4993 148.919 28.4993C147.038 28.5213 145.157 28.4423 143.284 28.2626C142.272 28.2575 141.284 27.9527 140.451 27.388C139.618 26.8232 138.977 26.0249 138.614 25.0972C138.085 23.0088 137.862 20.8573 137.951 18.7072C137.887 17.0791 138.029 15.4495 138.372 13.8555C138.589 13.0733 139 12.356 139.568 11.7676C140.136 11.1791 140.843 10.7378 141.627 10.483C144.132 9.8295 146.721 9.54044 149.311 9.62508C152.334 9.49303 155.363 9.66153 158.351 10.128C158.932 10.2613 159.477 10.5186 159.945 10.8816C160.414 11.2446 160.796 11.7044 161.063 12.2284C161.527 13.2918 161.733 14.4461 161.666 15.6009V16.2518H156.181C156.166 15.803 156.064 15.3611 155.88 14.9501C155.609 14.4768 154.765 14.1809 153.409 14.0922H150.667C149.041 14.0112 147.411 14.0112 145.785 14.0922C145.166 14.193 144.605 14.5139 144.211 14.9939C143.816 15.4739 143.615 16.0795 143.646 16.6955C143.646 17.1984 143.646 17.9972 143.646 19.0918C143.473 20.4233 143.748 21.7739 144.429 22.9376C145.133 23.4789 146.007 23.7615 146.9 23.7363C147.322 23.7363 148.226 23.7363 149.582 23.7363C151.498 23.845 153.421 23.7258 155.307 23.3813C155.97 23.3518 156.332 22.6122 156.362 21.4584Z" fill="#001336"/>
<path fill-rule="evenodd" clip-rule="evenodd" d="M222.353 28.4104V9.86169H231.393L242.844 23.9729L242.693 9.86169H248.147V28.4104H239.017L227.717 14.4471L227.867 28.4104H222.353ZM199.602 19.21H208.642C209.413 19.2445 210.185 19.1647 210.932 18.9734C211.27 18.7994 211.545 18.5265 211.717 18.1925C211.89 17.8586 211.953 17.4801 211.897 17.1096C211.897 15.9263 211.686 15.1867 211.234 14.8317C210.473 14.4791 209.63 14.3359 208.793 14.4175H199.602V19.21ZM193.877 28.4104V9.86169H210.179C211.533 9.81927 212.888 9.92845 214.217 10.1871C214.886 10.3009 215.514 10.5809 216.041 11.0003C216.569 11.4197 216.978 11.9647 217.23 12.5834C217.607 13.6578 217.78 14.7907 217.743 15.9263C217.856 16.7399 217.768 17.5685 217.484 18.3413C217.201 19.114 216.731 19.808 216.115 20.3638C214.973 20.9828 213.71 21.3559 212.409 21.4584H213.343C214.273 21.4328 215.198 21.6043 216.055 21.9613C216.567 22.393 216.96 22.9447 217.197 23.5654C217.434 24.186 217.508 24.8553 217.411 25.5113V28.4696H211.595V26.1029C211.595 24.7125 211.083 23.9434 210.089 23.7954H208.431H199.602V28.4104H193.877Z" fill="#001336"/>
<path fill-rule="evenodd" clip-rule="evenodd" d="M384.351 28.4103V9.86155H390.076V28.4103H384.351ZM359.28 23.9728H368.923C369.712 24.0073 370.503 23.9377 371.273 23.7657C371.698 23.6278 372.074 23.3736 372.357 23.0329C372.64 22.6923 372.818 22.2794 372.87 21.8428C372.995 20.9609 373.045 20.0704 373.021 19.1803C373.132 17.9466 372.925 16.7053 372.418 15.5711C371.876 14.8316 370.761 14.4766 369.013 14.4766H359.28V23.9728ZM353.525 28.4103V9.86155H369.857C371.269 9.83863 372.681 9.93763 374.076 10.1574C374.855 10.2498 375.602 10.52 376.256 10.9464C376.91 11.3728 377.453 11.9434 377.842 12.6128C378.641 14.6879 378.97 16.9087 378.806 19.1211C378.881 20.481 378.881 21.8438 378.806 23.2036C378.755 24.4427 378.263 25.6248 377.415 26.5439C376.567 27.4629 375.417 28.0606 374.166 28.2328C373.037 28.3787 371.899 28.4381 370.761 28.4103H353.525ZM330.744 28.4103V9.86155H336.499V23.8249H349.547V28.4103H330.744ZM312.332 14.2399C310.444 14.1199 308.547 14.2593 306.697 14.6541C306.33 14.8372 306.018 15.1107 305.791 15.4477C305.564 15.7848 305.43 16.1738 305.402 16.577C305.335 17.3843 305.335 18.1955 305.402 19.0028C305.35 20.1253 305.451 21.2496 305.703 22.3457C305.974 23.322 306.878 23.8545 308.415 23.9728C309.319 23.9728 310.404 23.9728 311.669 23.9728C313.756 24.0722 315.847 23.9532 317.907 23.6178C318.343 23.462 318.725 23.1871 319.008 22.8256C319.291 22.464 319.463 22.0307 319.504 21.5766C319.577 20.651 319.577 19.7213 319.504 18.7957C319.551 18.0569 319.551 17.3158 319.504 16.577C319.493 16.1504 319.367 15.7343 319.139 15.3708C318.912 15.0072 318.591 14.7089 318.208 14.5061C317.336 14.2615 316.433 14.1419 315.526 14.1511L312.332 14.2399ZM311.519 9.62489C314.454 9.55217 317.392 9.64106 320.318 9.89114C321.351 9.9865 322.332 10.3843 323.132 11.0331C323.933 11.6819 324.516 12.5517 324.808 13.5299C325.044 14.4997 325.175 15.4913 325.199 16.4882C325.199 17.1982 325.199 18.0857 325.199 19.1507C325.279 20.9163 325.137 22.6849 324.777 24.4166C324.429 25.6231 323.672 26.6767 322.631 27.403C321.59 28.1293 320.327 28.4847 319.052 28.4103C317.666 28.4103 315.376 28.5582 312.212 28.5582H307.36C305.704 28.5611 304.06 28.2704 302.509 27.7003C301.769 27.3158 301.138 26.7583 300.67 26.0773C300.202 25.3962 299.913 24.6124 299.827 23.7953C299.642 22.2344 299.572 20.6624 299.616 19.0916C299.616 17.5532 299.616 16.5474 299.616 16.1332C299.655 15.1245 299.848 14.1273 300.189 13.1749C300.667 12.1585 301.439 11.3025 302.408 10.7133C303.378 10.1242 304.503 9.82802 305.643 9.86155C306.878 9.7728 308.897 9.62489 311.519 9.62489ZM269.332 28.3216V9.86155H275.088V16.7249H288.165V9.86155H293.891V28.4103H288.165V21.4582H275.088V28.5582L269.332 28.3216Z" fill="#001336"/>
<path fill-rule="evenodd" clip-rule="evenodd" d="M396.012 28.4103V9.86157H405.142L416.593 23.9728L416.442 9.86157H421.866V28.4103H412.645L401.375 14.447L401.526 28.4103H396.012Z" fill="#001336"/>
<path fill-rule="evenodd" clip-rule="evenodd" d="M452.001 16.1038H446.366C446.366 14.7726 445.552 14.0922 444.046 14.0626H436.482C435.711 14.0009 434.938 14.1548 434.252 14.5063C433.954 14.7478 433.713 15.0503 433.547 15.3926C433.38 15.735 433.292 16.109 433.288 16.4884C433.288 17.1393 433.288 18.1254 433.288 19.4468C433.196 20.5896 433.35 21.7387 433.74 22.8193C434.162 23.6476 435.277 24.0913 436.995 24.1505H441.454C443.021 24.1505 443.985 24.1505 444.468 24.1505C445.075 24.1294 445.658 23.9109 446.125 23.5293C446.314 23.3099 446.457 23.0556 446.545 22.7812C446.633 22.5069 446.664 22.2181 446.637 21.9318V21.4584H439.345V17.938H452.001V20.5118C452.05 22.0069 451.949 23.5031 451.7 24.9788C451.217 27.2568 449.47 28.4105 446.426 28.4993H439.224C436.543 28.4993 434.584 28.4993 433.409 28.4993C432.238 28.5736 431.073 28.2814 430.082 27.6648C429.092 27.0481 428.325 26.1388 427.894 25.0676C427.415 23.2131 427.222 21.2984 427.322 19.3876C427.211 17.2741 427.445 15.1568 428.015 13.1159C428.287 12.373 428.748 11.711 429.354 11.193C429.961 10.6751 430.693 10.3186 431.48 10.1576C434.347 9.68709 437.255 9.50864 440.159 9.62508C443.534 9.62508 445.824 9.62508 446.999 9.62508C449.651 9.86175 451.248 10.9563 451.73 12.8792C451.941 13.8511 452.032 14.8444 452.001 15.8376" fill="#001336"/>
</svg>
