<svg width="16" height="20" viewBox="0 0 16 20" fill="none" xmlns="http://www.w3.org/2000/svg">
<path fill-rule="evenodd" clip-rule="evenodd" d="M7.99972 19.1886L8.72086 18.376C9.53915 17.4389 10.2752 16.5497 10.93 15.704L11.4706 14.9909C13.7277 11.9497 14.8569 9.53603 14.8569 7.75203C14.8569 3.94403 11.7871 0.857178 7.99972 0.857178C4.21229 0.857178 1.14258 3.94403 1.14258 7.75203C1.14258 9.53603 2.27172 11.9497 4.52886 14.9909L5.06944 15.704C6.00365 16.9011 6.98106 18.0626 7.99972 19.1886Z" stroke="#001336" stroke-linecap="round" stroke-linejoin="round"/>
<path d="M7.99972 10.5715C9.57768 10.5715 10.8569 9.29228 10.8569 7.71432C10.8569 6.13636 9.57768 4.85718 7.99972 4.85718C6.42176 4.85718 5.14258 6.13636 5.14258 7.71432C5.14258 9.29228 6.42176 10.5715 7.99972 10.5715Z" stroke="#001336" stroke-linecap="round" stroke-linejoin="round"/>
</svg>
