<svg width="201" height="200" viewBox="0 0 201 200" fill="none" xmlns="http://www.w3.org/2000/svg">
<g filter="url(#filter0_di_115_14)">
<path fill-rule="evenodd" clip-rule="evenodd" d="M80.9289 51.3667C74.2432 51.3667 67.5575 52.9585 61.4024 56.2483C41.3452 67.0728 33.7044 92.2238 44.5289 112.387C45.8024 114.722 47.3942 117.056 49.3044 119.285L49.9412 120.028L20.7575 147.089C20.5452 147.301 20.333 147.62 20.2269 148.044C20.1208 148.363 20.2269 148.787 20.333 149.105C20.4391 149.424 20.6514 149.742 20.9697 149.954C21.2881 150.167 21.6065 150.273 21.9248 150.273H31.4759V188.159C31.4759 189.114 32.2187 189.963 33.2799 189.963H89.8432C90.7983 189.963 91.6473 189.22 91.6473 188.159V150.273H101.198C101.517 150.273 101.941 150.167 102.153 149.954C102.472 149.742 102.684 149.424 102.79 149.105C102.896 148.787 102.896 148.363 102.896 148.044C102.896 147.726 102.684 147.407 102.366 147.089L87.8269 133.612L89.8432 133.187C93.6636 132.338 97.2718 131.065 100.562 129.261C114.994 121.514 123.484 105.914 122.211 89.4646L122.104 88.7218L135.794 81.2932C136.113 81.081 136.431 80.8687 136.537 80.5503L142.055 69.3014L148.529 73.4401C148.953 73.6524 149.378 73.7585 149.802 73.6524C150.227 73.5463 150.651 73.334 150.864 73.0156L162.006 58.2646L167.949 62.8279C168.268 63.0401 168.586 63.1463 168.904 63.1463C169.223 63.1463 169.541 63.1463 169.86 62.934L185.672 54.4442C185.884 54.3381 186.096 54.1259 186.202 53.9136L186.521 53.2769L192.145 27.8075C192.251 27.383 192.145 26.9585 191.933 26.534C191.721 26.1095 191.296 25.8973 190.872 25.685L179.411 22.183C179.304 22.2891 179.092 22.2891 178.774 22.2891C178.562 22.2891 178.349 22.3952 178.137 22.5014L107.035 60.7055L106.504 60.281C99.0759 54.4442 90.0555 51.3667 80.9289 51.3667ZM35.084 186.248V148.363C35.084 147.407 34.3412 146.559 33.2799 146.559H26.4881L52.8065 122.044L53.5493 122.999C55.884 125.971 58.6432 127.456 61.6146 127.456C62.5697 127.456 63.4187 126.714 63.4187 125.652C63.4187 124.591 62.6759 123.848 61.6146 123.848C59.7044 123.848 57.6881 122.575 56.0963 120.346L55.5657 119.603L61.7208 113.873L96.8473 146.452H90.0554C89.1003 146.452 88.2514 147.195 88.2514 148.256V186.248H88.1452H35.084ZM84.431 130.428L62.782 110.371C62.1452 109.734 61.084 109.734 60.3412 110.371L53.7616 116.526L53.231 114.934C52.382 112.175 51.9575 109.203 51.9575 106.02C51.9575 101.032 53.0187 96.3626 55.035 92.8606L55.7779 91.5871L56.733 92.6483C57.6881 93.7095 58.8554 94.4524 60.1289 95.0891C61.4024 95.6197 62.782 95.9381 64.2677 95.9381C65.9657 95.9381 67.6636 95.5136 69.1493 94.7708C70.3167 94.134 71.3779 93.285 72.2269 92.2238C73.0759 91.1626 73.7126 89.9952 74.1371 88.7218C74.8799 86.0687 74.6677 83.3095 73.3942 80.8687C70.7412 75.881 64.4799 73.9708 59.4922 76.7299C58.3248 77.3667 57.2636 78.2157 56.4146 79.2769C55.5657 80.3381 54.9289 81.5054 54.5044 82.7789C54.0799 84.2646 53.9738 85.8565 54.2922 87.5544L54.3983 88.085L54.0799 88.5095C50.5779 92.5422 48.5616 99.0157 48.5616 106.126C48.5616 106.763 48.5616 107.399 48.6677 108.036L46.6514 108.567C38.4799 90.5259 45.6963 68.983 63.2065 59.6442C76.8963 52.3218 94.0881 54.232 105.868 64.3136C106.186 64.5259 106.504 64.7381 106.823 64.7381C107.141 64.7381 107.566 64.7381 107.884 64.5259L179.411 26.1095L186.202 28.1259L158.504 43.7259C158.292 43.832 158.08 44.0442 157.974 44.1503L157.655 44.7871C157.549 44.9993 157.549 45.2116 157.549 45.5299C157.549 45.7422 157.655 45.9544 157.762 46.1667C157.868 46.3789 158.08 46.5912 158.186 46.6973L158.823 47.0156C159.035 47.1218 159.247 47.1218 159.566 47.0156C159.778 47.0156 159.99 46.9095 160.202 46.8034L187.9 30.9912L183.337 51.7912L169.329 59.432L162.855 54.4442L162.219 54.1259C162.006 54.0197 161.794 54.0197 161.476 54.1259C161.264 54.1259 161.051 54.232 160.839 54.3381C160.627 54.4442 160.415 54.6565 160.309 54.7626L149.06 69.6197L142.268 65.2687C142.055 65.1626 141.843 65.0565 141.525 65.0565H140.782L140.145 65.3748C139.933 65.481 139.827 65.6932 139.721 65.9054L133.672 78.534L119.345 86.1748C119.027 86.3871 118.815 86.5993 118.602 86.9177C118.39 87.2361 118.39 87.5544 118.39 87.9789C120.406 103.473 112.447 118.754 98.7575 126.077C94.4065 128.412 89.7371 129.897 84.8554 130.322L84.431 130.428ZM64.2677 92.3299C62.3575 92.3299 60.4473 91.481 59.1738 89.9952L58.2187 88.934L59.4922 88.4034C60.1289 88.085 60.8718 87.9789 61.5085 87.9789C63.2065 87.9789 64.7983 88.8279 66.284 90.5259L67.4514 91.9054L65.8595 92.2238C65.3289 92.3299 64.7983 92.3299 64.2677 92.3299ZM69.8922 89.0401L68.9371 87.9789C66.8146 85.6442 64.2677 84.3708 61.6146 84.3708C60.8718 84.3708 60.1289 84.4769 59.2799 84.6891L57.2636 85.2197L58.0065 83.3095C58.5371 81.7177 59.7044 80.4442 61.084 79.7014C62.0391 79.1707 63.1003 78.8524 64.2677 78.8524C65.435 78.8524 66.7085 79.1708 67.6636 79.8075C68.7248 80.4442 69.5738 81.2932 70.1044 82.3544C70.5289 83.0973 70.7412 83.9463 70.8473 84.9014C70.9534 85.7503 70.8473 86.5993 70.635 87.4483V87.5544L69.8922 89.0401ZM41.9183 152.979C41.9183 146.93 47.1183 142.048 53.4857 142.048C56.1387 142.048 58.5796 142.897 60.4898 144.383L60.8081 144.595L61.1265 144.383C63.1428 142.897 65.5836 142.048 68.2367 142.048C74.604 142.048 79.804 146.93 79.804 152.979C79.804 156.481 73.3306 165.501 62.5061 176.963C61.6571 177.918 60.0653 177.918 59.2163 176.963C48.3918 165.501 41.9183 156.587 41.9183 152.979ZM60.4898 171.656L60.9142 172.081L61.3387 171.656C66.751 165.714 75.0285 155.844 75.3469 152.979C75.3469 149.583 72.1632 146.718 68.3428 146.718C66.1143 146.718 64.0979 147.673 62.7183 149.371C61.7632 150.432 59.9591 150.432 59.1102 149.371C57.7306 147.673 55.7142 146.718 53.4857 146.718C49.5591 146.718 46.4816 149.477 46.4816 153.085C46.8 155.844 55.0775 165.714 60.4898 171.656Z" fill="white"/>
<path fill-rule="evenodd" clip-rule="evenodd" d="M36.7348 18.3657C24.3365 18.3657 14.2858 28.4165 14.2858 40.8147V165.56C14.2858 169.229 16.7855 172.315 20.1751 173.208C21.2651 173.495 22.194 174.381 22.194 175.509C22.194 176.636 21.2731 177.568 20.162 177.378C14.508 176.413 10.2042 171.489 10.2042 165.56V40.8147C10.2042 26.1623 22.0823 14.2841 36.7348 14.2841H159.439C160.566 14.2841 161.48 15.1978 161.48 16.3249C161.48 17.452 160.566 18.3657 159.439 18.3657H36.7348ZM169.388 75.5086C169.388 74.3815 170.302 73.4678 171.429 73.4678C172.556 73.4678 173.469 74.3815 173.469 75.5086V151.019C173.469 165.671 161.591 177.549 146.939 177.549H103.827C102.7 177.549 101.786 176.636 101.786 175.509C101.786 174.381 102.7 173.468 103.827 173.468H146.939C159.337 173.468 169.388 163.417 169.388 151.019V75.5086Z" fill="white"/>
</g>
<defs>
<filter id="filter0_di_115_14" x="-8" y="-7" width="216" height="216" filterUnits="userSpaceOnUse" color-interpolation-filters="sRGB">
<feFlood flood-opacity="0" result="BackgroundImageFix"/>
<feColorMatrix in="SourceAlpha" type="matrix" values="0 0 0 0 0 0 0 0 0 0 0 0 0 0 0 0 0 0 127 0" result="hardAlpha"/>
<feOffset dy="1"/>
<feGaussianBlur stdDeviation="4"/>
<feComposite in2="hardAlpha" operator="out"/>
<feColorMatrix type="matrix" values="0 0 0 0 1 0 0 0 0 1 0 0 0 0 1 0 0 0 0.8 0"/>
<feBlend mode="normal" in2="BackgroundImageFix" result="effect1_dropShadow_115_14"/>
<feBlend mode="normal" in="SourceGraphic" in2="effect1_dropShadow_115_14" result="shape"/>
<feColorMatrix in="SourceAlpha" type="matrix" values="0 0 0 0 0 0 0 0 0 0 0 0 0 0 0 0 0 0 127 0" result="hardAlpha"/>
<feOffset/>
<feGaussianBlur stdDeviation="2"/>
<feComposite in2="hardAlpha" operator="arithmetic" k2="-1" k3="1"/>
<feColorMatrix type="matrix" values="0 0 0 0 0 0 0 0 0 0 0 0 0 0 0 0 0 0 0.02 0"/>
<feBlend mode="normal" in2="shape" result="effect2_innerShadow_115_14"/>
</filter>
</defs>
</svg>
