<svg width="238" height="21" viewBox="0 0 238 21" fill="none" xmlns="http://www.w3.org/2000/svg">
<path fill-rule="evenodd" clip-rule="evenodd" d="M16.8783 7.245H22.1667L16.8783 1.2125L11.5425 7.22917L16.8783 7.245ZM16.8783 10.1742H24.9217C24.9217 10.1742 23.3383 8.29 23.3383 8.40083H10.4183C10.4183 8.29 8.835 10.1742 8.835 10.1742H16.8783ZM16.8783 0.5C22.2617 0.5 33.7567 2.93833 33.7567 10.285C33.7567 16.1908 25.745 18.7717 25.2542 18.7875C25.1592 18.7875 25.1592 15.6208 25.0642 14.0375C24.9692 12.4542 24.2092 12.2483 23.3542 12.2483C22.9451 12.2809 22.561 12.4582 22.2709 12.7484C21.9807 13.0385 21.8034 13.4226 21.7708 13.8317C21.7708 14.5442 21.7708 19.7692 21.7708 19.7692L18.81 20.1967V14.1642C18.81 12.4383 17.7333 12.3275 16.9733 12.3117C16.2133 12.2958 15.0417 12.4383 15.0417 14.1642C15.0417 16.4125 15.0417 20.1808 15.0417 20.1808L12.0808 19.7533C12.0808 19.7533 12.0808 14.5283 12.0808 13.8158C12.0482 13.4068 11.871 13.0227 11.5808 12.7325C11.2906 12.4424 10.9066 12.2651 10.4975 12.2325C9.6425 12.2325 8.91417 12.5175 8.7875 14.0217C8.66083 15.5258 8.6925 18.6925 8.5975 18.7717C8.01166 18.7717 0 16.1908 0 10.285C0 2.93833 11.495 0.5 16.8783 0.5ZM17.575 1.13333C21.5592 1.14384 25.4383 2.41284 28.6583 4.75917C29.881 5.70599 30.8719 6.9189 31.5558 8.30583C31.8632 9.20764 31.9783 10.1638 31.8938 11.1128C31.8092 12.0618 31.5269 12.9826 31.065 13.8158C30.2575 15.0667 28.1517 16.9825 27.5183 16.9825V12.9608C27.8001 13.3818 28.2251 13.686 28.7144 13.8171C29.2037 13.9482 29.7239 13.8971 30.1783 13.6733C31.0017 13.135 31.1917 11.5992 29.64 10.6333V10.4592H30.7167V10.2692C28.6583 9.01833 25.3175 6.6275 23.7025 5.51917C22.42 4.55333 19.3325 2.55833 17.575 1.13333ZM16.1817 1.13333C12.1964 1.13732 8.31539 2.40696 5.09833 4.75917C3.8668 5.69873 2.86514 6.90614 2.16917 8.29C1.85484 9.19058 1.73604 10.1478 1.82068 11.0979C1.90531 12.048 2.19144 12.9692 2.66 13.8C3.515 15.0667 5.58917 16.9667 6.2225 16.9667V12.9608C5.94074 13.3818 5.51571 13.686 5.02643 13.8171C4.53716 13.9482 4.01693 13.8971 3.5625 13.6733C2.72333 13.1667 2.54917 11.5833 4.085 10.6333V10.4592H3.02417V10.2692C5.0825 9.01833 8.4075 6.6275 10.0383 5.51917C11.3367 4.55333 14.4242 2.55833 16.1817 1.1175V1.13333Z" fill="white"/>
<path fill-rule="evenodd" clip-rule="evenodd" d="M57.3959 15.3042V5.37668H60.42V9.08168H62.0034L66.0884 5.37668H70.2367L64.5525 10.285L70.8067 15.3042H66.5L61.94 11.4883H60.3567V15.3042H57.3959ZM46.4392 11.4567H50.6667L48.4975 7.49835L46.4392 11.4567ZM40.9767 15.3042L46.5659 5.37668H50.6667L56.0817 15.3042H52.725L51.7434 13.5308H45.3309L44.3334 15.3042H40.9767Z" fill="white"/>
<path fill-rule="evenodd" clip-rule="evenodd" d="M88.0012 5.37665H98.9896V7.62499H90.9779V9.33499H98.5304V11.2983H90.9779V13.0558H99.0846V15.3042H88.0012V5.37665ZM82.1587 11.5833H85.0721V12.0267C85.1109 12.717 85.003 13.4077 84.7554 14.0533C84.5897 14.345 84.362 14.5968 84.0884 14.791C83.8149 14.9853 83.5021 15.1172 83.1721 15.1775C82.5924 15.2867 82.0044 15.345 81.4146 15.3517C80.8762 15.3517 79.8312 15.3517 78.2479 15.3517C77.2594 15.3635 76.271 15.3212 75.2871 15.225C74.755 15.2223 74.2362 15.0591 73.7984 14.7569C73.3605 14.4546 73.0241 14.0273 72.8329 13.5308C72.5552 12.4131 72.4379 11.2616 72.4846 10.1108C72.4513 9.23944 72.5257 8.36729 72.7062 7.51416C72.8202 7.09553 73.0359 6.71162 73.3343 6.39666C73.6327 6.08171 74.0044 5.84552 74.4162 5.70916C75.7324 5.35939 77.0927 5.20469 78.4537 5.24999C80.0421 5.17931 81.6335 5.26949 83.2037 5.51916C83.5092 5.5905 83.7952 5.72819 84.0415 5.92248C84.2878 6.11676 84.4883 6.36286 84.6287 6.64332C84.8724 7.21244 84.9807 7.83027 84.9454 8.44832V8.79666H82.0637C82.0559 8.55646 82.0021 8.31999 81.9054 8.09999C81.7629 7.84666 81.3196 7.68832 80.6071 7.64082H79.1662C78.3118 7.59751 77.4557 7.59751 76.6012 7.64082C76.2756 7.6948 75.9811 7.86656 75.7739 8.12346C75.5666 8.38035 75.461 8.70446 75.4771 9.03416C75.4771 9.30332 75.4771 9.73082 75.4771 10.3167C75.3861 11.0293 75.5307 11.7521 75.8887 12.375C76.2583 12.6647 76.7177 12.816 77.1871 12.8025C77.4087 12.8025 77.8837 12.8025 78.5962 12.8025C79.603 12.8607 80.6131 12.7969 81.6046 12.6125C81.9529 12.5967 82.1429 12.2008 82.1587 11.5833Z" fill="white"/>
<path fill-rule="evenodd" clip-rule="evenodd" d="M116.834 15.3042V5.37665H121.584L127.6 12.9292L127.521 5.37665H130.387V15.3042H125.589L119.652 7.83082L119.731 15.3042H116.834ZM104.879 10.38H109.629C110.035 10.3985 110.44 10.3557 110.833 10.2533C111.01 10.1602 111.154 10.0141 111.245 9.83541C111.336 9.65667 111.369 9.45411 111.339 9.25582C111.339 8.62249 111.229 8.22666 110.991 8.03666C110.592 7.84793 110.148 7.77131 109.709 7.81499H104.879V10.38ZM101.871 15.3042V5.37665H110.437C111.148 5.35395 111.86 5.41238 112.559 5.55082C112.91 5.61173 113.24 5.76156 113.517 5.98605C113.794 6.21054 114.009 6.50221 114.142 6.83332C114.34 7.4084 114.431 8.0147 114.411 8.62249C114.471 9.05798 114.424 9.50145 114.275 9.91503C114.126 10.3286 113.88 10.7 113.556 10.9975C112.956 11.3288 112.292 11.5285 111.609 11.5833H112.099C112.588 11.5697 113.074 11.6615 113.524 11.8525C113.794 12.0835 114 12.3788 114.125 12.711C114.249 13.0432 114.288 13.4014 114.237 13.7525V15.3358H111.181V14.0692C111.181 13.325 110.912 12.9133 110.389 12.8342H109.519H104.879V15.3042H101.871Z" fill="white"/>
<path fill-rule="evenodd" clip-rule="evenodd" d="M201.953 15.3042V5.37668H204.962V15.3042H201.953ZM188.78 12.9292H193.847C194.262 12.9477 194.677 12.9104 195.082 12.8183C195.305 12.7445 195.503 12.6085 195.651 12.4261C195.8 12.2438 195.894 12.0228 195.921 11.7892C195.986 11.3172 196.013 10.8405 196 10.3642C196.059 9.70391 195.95 9.03954 195.683 8.43251C195.398 8.03668 194.813 7.84668 193.894 7.84668H188.78V12.9292ZM185.756 15.3042V5.37668H194.338C195.08 5.36441 195.821 5.4174 196.554 5.53501C196.964 5.5845 197.356 5.72911 197.7 5.9573C198.043 6.18549 198.329 6.49093 198.533 6.84918C198.953 7.95981 199.126 9.1484 199.04 10.3325C199.079 11.0603 199.079 11.7897 199.04 12.5175C199.013 13.1807 198.754 13.8133 198.309 14.3052C197.863 14.7971 197.259 15.117 196.602 15.2092C196.009 15.2873 195.411 15.319 194.813 15.3042H185.756ZM173.786 15.3042V5.37668H176.81V12.85H183.666V15.3042H173.786ZM164.112 7.72001C163.119 7.65578 162.123 7.73039 161.151 7.94168C160.958 8.03973 160.794 8.18609 160.675 8.36646C160.555 8.54684 160.485 8.75508 160.47 8.97085C160.435 9.40292 160.435 9.83711 160.47 10.2692C160.443 10.87 160.496 11.4717 160.628 12.0583C160.771 12.5808 161.246 12.8658 162.053 12.9292C162.528 12.9292 163.098 12.9292 163.763 12.9292C164.86 12.9824 165.958 12.9187 167.041 12.7392C167.27 12.6558 167.471 12.5087 167.62 12.3152C167.768 12.1217 167.859 11.8897 167.88 11.6467C167.918 11.1513 167.918 10.6537 167.88 10.1583C167.905 9.7629 167.905 9.36629 167.88 8.97085C167.874 8.74255 167.808 8.51987 167.688 8.32527C167.569 8.13068 167.4 7.97105 167.199 7.86251C166.741 7.73156 166.267 7.66756 165.79 7.67251L164.112 7.72001ZM163.684 5.25001C165.227 5.21109 166.77 5.25867 168.308 5.39251C168.851 5.44355 169.366 5.65648 169.786 6.00371C170.207 6.35094 170.514 6.81648 170.667 7.34001C170.791 7.85908 170.86 8.3898 170.873 8.92335C170.873 9.30335 170.873 9.77835 170.873 10.3483C170.914 11.2933 170.84 12.2399 170.651 13.1667C170.468 13.8124 170.07 14.3764 169.523 14.7651C168.976 15.1538 168.313 15.344 167.643 15.3042C166.914 15.3042 165.711 15.3833 164.048 15.3833H161.499C160.629 15.3849 159.765 15.2293 158.95 14.9242C158.562 14.7184 158.23 14.42 157.984 14.0555C157.738 13.691 157.586 13.2715 157.541 12.8342C157.444 11.9987 157.407 11.1574 157.43 10.3167C157.43 9.49335 157.43 8.95501 157.43 8.73335C157.451 8.19349 157.552 7.65977 157.731 7.15001C157.982 6.60601 158.388 6.14787 158.897 5.83257C159.407 5.51727 159.998 5.35874 160.597 5.37668C161.246 5.32918 162.307 5.25001 163.684 5.25001ZM141.518 15.2567V5.37668H144.542V9.05001H151.413V5.37668H154.422V15.3042H151.413V11.5833H144.542V15.3833L141.518 15.2567Z" fill="white"/>
<path fill-rule="evenodd" clip-rule="evenodd" d="M208.082 15.3042V5.37665H212.88L218.896 12.9292L218.817 5.37665H221.667V15.3042H216.822L210.9 7.83082L210.98 15.3042H208.082Z" fill="white"/>
<path fill-rule="evenodd" clip-rule="evenodd" d="M237.499 8.71747H234.538C234.538 8.00497 234.111 7.64081 233.319 7.62497H229.345C228.94 7.59197 228.534 7.67431 228.173 7.86247C228.017 7.99169 227.89 8.15359 227.803 8.33684C227.715 8.52008 227.669 8.72025 227.667 8.92331C227.667 9.27164 227.667 9.79942 227.667 10.5066C227.618 11.1183 227.699 11.7333 227.904 12.3116C228.126 12.755 228.712 12.9925 229.614 13.0241H231.958C232.781 13.0241 233.288 13.0241 233.541 13.0241C233.86 13.0129 234.166 12.8959 234.412 12.6916C234.511 12.5742 234.586 12.4381 234.633 12.2913C234.679 12.1445 234.695 11.9899 234.681 11.8366V11.5833H230.849V9.69914H237.499V11.0766C237.525 11.8769 237.472 12.6777 237.341 13.4675C237.087 14.6866 236.169 15.3041 234.57 15.3516H230.786C229.377 15.3516 228.348 15.3516 227.73 15.3516C227.115 15.3914 226.503 15.235 225.982 14.905C225.462 14.575 225.059 14.0883 224.833 13.515C224.581 12.5224 224.479 11.4977 224.532 10.475C224.473 9.34383 224.596 8.21063 224.896 7.11831C225.039 6.72071 225.281 6.36637 225.6 6.08916C225.919 5.81196 226.303 5.62115 226.717 5.53497C228.223 5.28316 229.751 5.18765 231.277 5.24997C233.05 5.24997 234.253 5.24997 234.871 5.24997C236.264 5.37664 237.103 5.96247 237.357 6.99164C237.467 7.5118 237.515 8.04339 237.499 8.57497" fill="white"/>
</svg>
