<svg width="18" height="18" viewBox="0 0 18 18" fill="none" xmlns="http://www.w3.org/2000/svg">
<path fill-rule="evenodd" clip-rule="evenodd" d="M1.4445 1C1.32681 1.00066 1.21413 1.0477 1.13092 1.13092C1.0477 1.21413 1.00066 1.32681 1 1.4445C1 10.0365 7.9635 17 16.5555 17C16.6732 16.9993 16.7859 16.9523 16.8691 16.8691C16.9523 16.7859 16.9993 16.6732 17 16.5555V13.26C16.9993 13.1423 16.9523 13.0296 16.8691 12.9464C16.7859 12.8632 16.6732 12.8162 16.5555 12.8155C15.331 12.8155 14.1355 12.618 13.027 12.252L13.022 12.25C12.9447 12.2246 12.8619 12.2213 12.7828 12.2403C12.7037 12.2592 12.6314 12.2998 12.574 12.3575L10.239 14.6925L9.915 14.5265C7.1495 13.1095 4.8815 10.8525 3.4735 8.0845L3.3085 7.761L5.6435 5.426C5.70279 5.36786 5.74476 5.29438 5.76472 5.21377C5.78467 5.13316 5.78183 5.04859 5.7565 4.9695C5.38241 3.83198 5.19268 2.64195 5.1945 1.4445C5.19384 1.32681 5.1468 1.21413 5.06358 1.13092C4.98037 1.0477 4.86769 1.00066 4.75 1H1.4445ZM0 1.4445C0.000660975 1.0616 0.153061 0.694567 0.423814 0.423814C0.694567 0.153061 1.0616 0.000660975 1.4445 0H4.75C5.1329 0.000660975 5.49993 0.153061 5.77069 0.423814C6.04144 0.694567 6.19384 1.0616 6.1945 1.4445C6.1945 2.5715 6.3745 3.652 6.7075 4.6595L6.7085 4.6625L6.7095 4.666C6.79043 4.91992 6.79969 5.19126 6.73626 5.45011C6.67283 5.70896 6.53917 5.94527 6.35 6.133L4.533 7.9505C5.80373 10.2811 7.71915 12.1962 10.05 13.4665L11.867 11.65C12.0564 11.4604 12.295 11.3275 12.5558 11.2662C12.8167 11.2049 13.0895 11.2176 13.3435 11.303C14.3802 11.6432 15.4644 11.816 16.5555 11.815C16.9384 11.8157 17.3054 11.9681 17.5762 12.2388C17.8469 12.5096 17.9993 12.8766 18 13.2595V16.5555C17.9993 16.9384 17.8469 17.3054 17.5762 17.5762C17.3054 17.8469 16.9384 17.9993 16.5555 18C7.411 18 0 10.589 0 1.4445Z" fill="#001336"/>
</svg>
