<svg width="214" height="214" viewBox="0 0 214 214" fill="none" xmlns="http://www.w3.org/2000/svg">
<g filter="url(#filter0_di_115_26)">
<path fill-rule="evenodd" clip-rule="evenodd" d="M165.311 65.5465H48.6897C43.1528 65.5468 38.6641 61.0582 38.6641 55.5215V17.0254C38.6641 11.4886 43.1526 7 48.6895 7H131.579C132.645 7 133.509 7.86395 133.509 8.92969C133.509 9.99542 132.645 10.8594 131.579 10.8594H48.6895C45.2841 10.8594 42.5234 13.62 42.5234 17.0254V55.5215C42.5234 58.9268 45.2841 61.6874 48.6893 61.6871H165.311C168.716 61.6871 171.477 58.9264 171.477 55.5211V17.0254C171.477 13.62 168.716 10.8594 165.311 10.8594H145.477C144.411 10.8594 143.547 9.99543 143.547 8.92969C143.547 7.86395 144.411 7 145.477 7H165.311C170.847 7 175.336 11.4886 175.336 17.0254V55.5211C175.336 61.0579 170.847 65.5465 165.311 65.5465ZM176.647 98.509C176.647 99.0613 177.094 99.509 177.647 99.509H184.416C185.463 99.509 186.468 99.9251 187.209 100.666C187.949 101.407 188.366 102.411 188.366 103.459L188.365 188.422C188.365 188.687 188.471 188.941 188.658 189.129C188.846 189.317 189.1 189.422 189.365 189.422H198.211C202.513 189.422 206 192.909 206 197.211C206 201.513 202.513 205 198.211 205H15.7891C11.4874 205 8 201.513 8 197.211C8 192.909 11.4874 189.422 15.7891 189.422H25.1277C25.68 189.422 26.1277 188.974 26.1277 188.422V178.479C26.1277 177.413 26.9917 176.549 28.0574 176.549C29.1232 176.549 29.9871 177.413 29.9871 178.479V188.422C29.9871 188.974 30.4348 189.422 30.9871 189.422H36.846C37.3983 189.422 37.846 188.974 37.846 188.422V175.589C37.846 174.523 38.7099 173.659 39.7757 173.659H86.6507C87.7164 173.659 88.5804 174.523 88.5804 175.589V188.422C88.5804 188.974 89.0281 189.422 89.5804 189.422H95.4402C95.9925 189.422 96.4402 188.974 96.4402 188.422V104.368C96.4402 103.816 95.9925 103.368 95.4402 103.368H30.9867C30.4344 103.368 29.9867 103.816 29.9867 104.368V165.023C29.9867 166.088 29.1228 166.952 28.057 166.952C26.9913 166.952 26.1273 166.088 26.1273 165.023V103.459C26.1273 102.411 26.5435 101.407 27.2843 100.666C28.025 99.9251 29.0297 99.509 30.0773 99.509H36.846C37.3983 99.509 37.846 99.0613 37.846 98.509V87.3762C37.846 86.3104 38.71 85.4465 39.7757 85.4465H86.6507C87.7164 85.4465 88.5804 86.3104 88.5804 87.3762V98.509C88.5804 99.0613 89.0281 99.509 89.5804 99.509H96.3496C97.3972 99.509 98.4019 99.9251 99.1427 100.666C99.8834 101.407 100.3 102.411 100.3 103.459V188.422C100.3 188.974 100.747 189.422 101.3 189.422H113.193C113.746 189.422 114.193 188.974 114.193 188.422V103.459C114.193 102.411 114.609 101.407 115.35 100.666C116.091 99.9251 117.096 99.509 118.143 99.509H124.912C125.464 99.509 125.912 99.0613 125.912 98.509V87.3762C125.912 86.3104 126.776 85.4465 127.842 85.4465H174.717C175.783 85.4465 176.647 86.3104 176.647 87.3762V98.509ZM171.787 99.509C172.339 99.509 172.787 99.0613 172.787 98.509V90.3059C172.787 89.7536 172.339 89.3059 171.787 89.3059H130.772C130.219 89.3059 129.772 89.7536 129.772 90.3059V98.509C129.772 99.0613 130.219 99.509 130.772 99.509H171.787ZM119.053 103.368C118.5 103.368 118.053 103.816 118.053 104.368V188.422C118.053 188.974 118.5 189.422 119.053 189.422H124.912C125.464 189.422 125.912 188.974 125.912 188.422V175.589C125.912 174.523 126.776 173.659 127.842 173.659H174.717C175.783 173.659 176.647 174.523 176.647 175.589V188.422C176.647 188.974 177.094 189.422 177.647 189.422H183.506C184.058 189.422 184.506 188.974 184.506 188.422L184.506 104.368C184.506 104.103 184.401 103.849 184.213 103.661C184.026 103.474 183.771 103.368 183.506 103.368H119.053ZM171.787 189.422C172.339 189.422 172.787 188.974 172.787 188.422V178.519C172.787 177.966 172.339 177.519 171.787 177.519H130.772C130.219 177.519 129.772 177.966 129.772 178.519V188.422C129.772 188.974 130.219 189.422 130.772 189.422H171.787ZM129.772 125.853C129.772 126.405 130.219 126.853 130.772 126.853H140.537C141.089 126.853 141.537 126.405 141.537 125.853V116.087C141.537 115.535 141.089 115.087 140.537 115.087H130.772C130.219 115.087 129.772 115.535 129.772 116.087V125.853ZM161.022 125.853C161.022 126.405 161.469 126.853 162.022 126.853H171.787C172.339 126.853 172.787 126.405 172.787 125.853V116.087C172.787 115.535 172.339 115.087 171.787 115.087H162.022C161.469 115.087 161.022 115.535 161.022 116.087V125.853ZM129.772 157.103C129.772 157.655 130.219 158.103 130.772 158.103H140.537C141.089 158.103 141.537 157.655 141.537 157.103V147.337C141.537 146.785 141.089 146.337 140.537 146.337H130.772C130.219 146.337 129.772 146.785 129.772 147.337V157.103ZM161.022 157.103C161.022 157.655 161.469 158.103 162.022 158.103H171.787C172.339 158.103 172.787 157.655 172.787 157.103V147.337C172.787 146.785 172.339 146.337 171.787 146.337H162.022C161.469 146.337 161.022 146.785 161.022 147.337V157.103ZM84.721 90.3059C84.721 89.7536 84.2733 89.3059 83.721 89.3059H42.7054C42.1531 89.3059 41.7054 89.7536 41.7054 90.3059V98.509C41.7054 99.0613 42.1531 99.509 42.7054 99.509H83.721C84.2733 99.509 84.721 99.0613 84.721 98.509V90.3059ZM83.721 189.422C84.2733 189.422 84.721 188.974 84.721 188.422V178.519C84.721 177.966 84.2733 177.519 83.721 177.519H42.7054C42.1531 177.519 41.7054 177.966 41.7054 178.519V188.422C41.7054 188.974 42.1531 189.422 42.7054 189.422H83.721ZM42.7054 115.088C42.1531 115.088 41.7054 115.535 41.7054 116.088V125.853C41.7054 126.405 42.1531 126.853 42.7054 126.853H52.471C53.0233 126.853 53.471 126.405 53.471 125.853V116.088C53.471 115.535 53.0233 115.088 52.471 115.088H42.7054ZM73.9554 115.088C73.4031 115.088 72.9554 115.535 72.9554 116.088V125.853C72.9554 126.405 73.4031 126.853 73.9554 126.853H83.721C84.2733 126.853 84.721 126.405 84.721 125.853V116.088C84.721 115.535 84.2733 115.088 83.721 115.088H73.9554ZM42.7054 146.338C42.1531 146.338 41.7054 146.785 41.7054 147.338V157.103C41.7054 157.655 42.1531 158.103 42.7054 158.103H52.471C53.0233 158.103 53.471 157.655 53.471 157.103V147.338C53.471 146.785 53.0233 146.338 52.471 146.338H42.7054ZM73.9554 146.338C73.4031 146.338 72.9554 146.785 72.9554 147.338V157.103C72.9554 157.655 73.4031 158.103 73.9554 158.103H83.721C84.2733 158.103 84.721 157.655 84.721 157.103V147.338C84.721 146.785 84.2733 146.338 83.721 146.338H73.9554ZM202.141 197.211C202.141 195.041 200.381 193.281 198.211 193.281H15.7891C13.6189 193.281 11.8594 195.041 11.8594 197.211C11.8594 199.381 13.6189 201.141 15.7891 201.141H198.211C200.381 201.141 202.141 199.381 202.141 197.211ZM126.935 112.251C127.59 111.596 128.478 111.228 129.404 111.228H141.904C142.831 111.228 143.719 111.596 144.374 112.251C145.029 112.906 145.397 113.794 145.397 114.72V127.22C145.397 128.146 145.029 129.035 144.374 129.69C143.719 130.345 142.831 130.712 141.904 130.712H129.404C128.478 130.712 127.59 130.345 126.935 129.69C126.28 129.035 125.912 128.146 125.912 127.22V114.72C125.912 113.794 126.28 112.906 126.935 112.251ZM158.185 112.251C158.84 111.596 159.728 111.228 160.654 111.228H173.154C174.081 111.228 174.969 111.596 175.624 112.251C176.279 112.906 176.647 113.794 176.647 114.72V127.22C176.647 128.146 176.279 129.035 175.624 129.69C174.969 130.345 174.081 130.712 173.154 130.712H160.654C159.728 130.712 158.84 130.345 158.185 129.69C157.53 129.035 157.162 128.146 157.162 127.22V114.72C157.162 113.794 157.53 112.906 158.185 112.251ZM126.935 143.501C127.59 142.846 128.478 142.478 129.404 142.478H141.904C142.831 142.478 143.719 142.846 144.374 143.501C145.029 144.156 145.397 145.044 145.397 145.97V158.47C145.397 159.396 145.029 160.285 144.374 160.94C143.719 161.595 142.831 161.962 141.904 161.962H129.404C128.478 161.962 127.59 161.595 126.935 160.94C126.28 160.285 125.912 159.396 125.912 158.47V145.97C125.912 145.044 126.28 144.156 126.935 143.501ZM158.185 143.501C158.84 142.846 159.728 142.478 160.654 142.478H173.154C174.081 142.478 174.969 142.846 175.624 143.501C176.279 144.156 176.647 145.044 176.647 145.97V158.47C176.647 159.396 176.279 160.285 175.624 160.94C174.969 161.595 174.081 161.962 173.154 161.962H160.654C159.728 161.962 158.84 161.595 158.185 160.94C157.53 160.285 157.162 159.396 157.162 158.47V145.97C157.162 145.044 157.53 144.156 158.185 143.501ZM38.8688 112.251C39.5238 111.596 40.412 111.228 41.3382 111.228H53.8382C54.7644 111.228 55.6526 111.596 56.3075 112.251C56.9625 112.906 57.3304 113.794 57.3304 114.72V127.22C57.3304 128.146 56.9625 129.035 56.3075 129.69C55.6526 130.345 54.7644 130.713 53.8382 130.713H41.3382C40.412 130.713 39.5238 130.345 38.8688 129.69C38.2139 129.035 37.846 128.147 37.846 127.22V114.72C37.846 113.794 38.2139 112.906 38.8688 112.251ZM70.1188 112.251C70.7738 111.596 71.662 111.228 72.5882 111.228H85.0882C86.0144 111.228 86.9026 111.596 87.5575 112.251C88.2124 112.906 88.5804 113.794 88.5804 114.72V127.22C88.5804 128.147 88.2124 129.035 87.5575 129.69C86.9026 130.345 86.0144 130.713 85.0882 130.713H72.5882C71.662 130.713 70.7738 130.345 70.1188 129.69C69.4639 129.035 69.096 128.146 69.096 127.22V114.72C69.096 113.794 69.4639 112.906 70.1188 112.251ZM38.8688 143.501C39.5237 142.846 40.412 142.478 41.3382 142.478H53.8382C54.7644 142.478 55.6526 142.846 56.3075 143.501C56.9625 144.156 57.3304 145.044 57.3304 145.97V158.47C57.3304 159.396 56.9625 160.285 56.3075 160.94C55.6526 161.595 54.7644 161.963 53.8382 161.963H41.3382C40.412 161.963 39.5238 161.595 38.8688 160.94C38.2139 160.285 37.846 159.397 37.846 158.47V145.97C37.846 145.044 38.2139 144.156 38.8688 143.501ZM70.1188 143.501C70.7738 142.846 71.662 142.478 72.5882 142.478H85.0882C86.0144 142.478 86.9026 142.846 87.5575 143.501C88.2124 144.156 88.5804 145.044 88.5804 145.97V158.47C88.5804 159.397 88.2124 160.285 87.5575 160.94C86.9026 161.595 86.0144 161.963 85.0882 161.963H72.5882C71.662 161.963 70.7738 161.595 70.1188 160.94C69.4639 160.285 69.096 159.396 69.096 158.47V145.97C69.096 145.044 69.4639 144.156 70.1188 143.501Z" fill="white"/>
<path d="M76.5416 37.0557C76.5416 35.7757 76.851 34.6344 77.4696 33.6317C78.1096 32.6077 78.963 31.7971 80.0296 31.1997C81.0963 30.6024 82.2696 30.3037 83.5496 30.3037C84.8296 30.3037 85.779 30.5171 86.3976 30.9437C87.0376 31.3491 87.283 31.8397 87.1336 32.4157C87.0696 32.7144 86.9416 32.9491 86.7496 33.1197C86.579 33.2691 86.3763 33.3651 86.1416 33.4077C85.907 33.4504 85.651 33.4397 85.3736 33.3757C84.0083 33.0984 82.7816 33.0771 81.6936 33.3117C80.6056 33.5464 79.7416 33.9837 79.1016 34.6237C78.483 35.2637 78.1736 36.0744 78.1736 37.0557H76.5416ZM76.5736 47.9997C76.0616 47.9997 75.667 47.8717 75.3896 47.6157C75.1123 47.3384 74.9736 46.9331 74.9736 46.3997V32.0957C74.9736 31.5837 75.1123 31.1891 75.3896 30.9117C75.667 30.6344 76.0616 30.4957 76.5736 30.4957C77.107 30.4957 77.5016 30.6344 77.7576 30.9117C78.035 31.1677 78.1736 31.5624 78.1736 32.0957V46.3997C78.1736 46.9117 78.035 47.3064 77.7576 47.5837C77.5016 47.8611 77.107 47.9997 76.5736 47.9997Z" fill="white"/>
<path d="M97.4789 48.1277C95.7082 48.1277 94.1295 47.7544 92.7429 47.0077C91.3775 46.2397 90.3002 45.1944 89.5109 43.8717C88.7429 42.5277 88.3589 40.9917 88.3589 39.2637C88.3589 37.5144 88.7215 35.9784 89.4469 34.6557C90.1936 33.3117 91.2176 32.2664 92.5189 31.5197C93.8202 30.7517 95.3135 30.3677 96.9989 30.3677C98.6629 30.3677 100.092 30.7411 101.287 31.4877C102.482 32.2131 103.388 33.2264 104.007 34.5277C104.647 35.8077 104.967 37.2904 104.967 38.9757C104.967 39.3811 104.828 39.7224 104.551 39.9997C104.274 40.2557 103.922 40.3837 103.495 40.3837H90.5989V37.8237H103.399L102.087 38.7197C102.066 37.6531 101.852 36.7037 101.447 35.8717C101.042 35.0184 100.466 34.3464 99.7189 33.8557C98.9722 33.3651 98.0655 33.1197 96.9989 33.1197C95.7829 33.1197 94.7376 33.3864 93.8629 33.9197C93.0096 34.4531 92.3589 35.1891 91.9109 36.1277C91.4629 37.0451 91.2389 38.0904 91.2389 39.2637C91.2389 40.4371 91.5056 41.4824 92.0389 42.3997C92.5722 43.3171 93.3082 44.0424 94.2469 44.5757C95.1856 45.1091 96.2629 45.3757 97.4789 45.3757C98.1402 45.3757 98.8122 45.2584 99.4949 45.0237C100.199 44.7677 100.764 44.4797 101.191 44.1597C101.511 43.9251 101.852 43.8077 102.215 43.8077C102.599 43.7864 102.93 43.8931 103.207 44.1277C103.57 44.4477 103.762 44.7997 103.783 45.1837C103.804 45.5677 103.634 45.8984 103.271 46.1757C102.546 46.7517 101.639 47.2211 100.551 47.5837C99.4842 47.9464 98.4602 48.1277 97.4789 48.1277Z" fill="white"/>
<path d="M123.914 48.0317C123.445 48.0317 123.05 47.8824 122.73 47.5837C122.431 47.2637 122.282 46.8691 122.282 46.3997V38.5277C122.282 37.3117 122.058 36.3197 121.61 35.5517C121.162 34.7837 120.554 34.2184 119.786 33.8557C119.039 33.4717 118.175 33.2797 117.194 33.2797C116.298 33.2797 115.487 33.4611 114.762 33.8237C114.037 34.1864 113.461 34.6771 113.034 35.2957C112.607 35.8931 112.394 36.5864 112.394 37.3757H110.378C110.378 36.0317 110.698 34.8371 111.338 33.7917C111.999 32.7251 112.895 31.8824 114.026 31.2637C115.157 30.6451 116.426 30.3357 117.834 30.3357C119.306 30.3357 120.618 30.6557 121.77 31.2957C122.943 31.9144 123.861 32.8317 124.522 34.0477C125.205 35.2637 125.546 36.7571 125.546 38.5277V46.3997C125.546 46.8691 125.386 47.2637 125.066 47.5837C124.767 47.8824 124.383 48.0317 123.914 48.0317ZM110.762 48.0317C110.293 48.0317 109.898 47.8824 109.578 47.5837C109.279 47.2637 109.13 46.8691 109.13 46.3997V32.1277C109.13 31.6371 109.279 31.2424 109.578 30.9437C109.898 30.6451 110.293 30.4957 110.762 30.4957C111.253 30.4957 111.647 30.6451 111.946 30.9437C112.245 31.2424 112.394 31.6371 112.394 32.1277V46.3997C112.394 46.8691 112.245 47.2637 111.946 47.5837C111.647 47.8824 111.253 48.0317 110.762 48.0317Z" fill="white"/>
<path d="M137.31 47.9997C136.244 47.9997 135.284 47.7331 134.43 47.1997C133.577 46.6451 132.905 45.8984 132.414 44.9597C131.924 44.0211 131.678 42.9651 131.678 41.7917V26.5277C131.678 26.0584 131.828 25.6744 132.126 25.3757C132.425 25.0771 132.809 24.9277 133.278 24.9277C133.748 24.9277 134.132 25.0771 134.43 25.3757C134.729 25.6744 134.878 26.0584 134.878 26.5277V41.7917C134.878 42.6451 135.113 43.3597 135.582 43.9357C136.052 44.5117 136.628 44.7997 137.31 44.7997H138.398C138.782 44.7997 139.102 44.9491 139.358 45.2477C139.636 45.5464 139.774 45.9304 139.774 46.3997C139.774 46.8691 139.593 47.2531 139.23 47.5517C138.889 47.8504 138.441 47.9997 137.886 47.9997H137.31ZM130.206 33.8877C129.758 33.8877 129.396 33.7597 129.118 33.5037C128.841 33.2477 128.702 32.9277 128.702 32.5437C128.702 32.1171 128.841 31.7757 129.118 31.5197C129.396 31.2637 129.758 31.1357 130.206 31.1357H137.598C138.046 31.1357 138.409 31.2637 138.686 31.5197C138.964 31.7757 139.102 32.1171 139.102 32.5437C139.102 32.9277 138.964 33.2477 138.686 33.5037C138.409 33.7597 138.046 33.8877 137.598 33.8877H130.206Z" fill="white"/>
</g>
<defs>
<filter id="filter0_di_115_26" x="-1" y="-1" width="216" height="216" filterUnits="userSpaceOnUse" color-interpolation-filters="sRGB">
<feFlood flood-opacity="0" result="BackgroundImageFix"/>
<feColorMatrix in="SourceAlpha" type="matrix" values="0 0 0 0 0 0 0 0 0 0 0 0 0 0 0 0 0 0 127 0" result="hardAlpha"/>
<feOffset dy="1"/>
<feGaussianBlur stdDeviation="4"/>
<feComposite in2="hardAlpha" operator="out"/>
<feColorMatrix type="matrix" values="0 0 0 0 1 0 0 0 0 1 0 0 0 0 1 0 0 0 0.65 0"/>
<feBlend mode="normal" in2="BackgroundImageFix" result="effect1_dropShadow_115_26"/>
<feBlend mode="normal" in="SourceGraphic" in2="effect1_dropShadow_115_26" result="shape"/>
<feColorMatrix in="SourceAlpha" type="matrix" values="0 0 0 0 0 0 0 0 0 0 0 0 0 0 0 0 0 0 127 0" result="hardAlpha"/>
<feOffset/>
<feGaussianBlur stdDeviation="2"/>
<feComposite in2="hardAlpha" operator="arithmetic" k2="-1" k3="1"/>
<feColorMatrix type="matrix" values="0 0 0 0 0 0 0 0 0 0 0 0 0 0 0 0 0 0 0.02 0"/>
<feBlend mode="normal" in2="shape" result="effect2_innerShadow_115_26"/>
</filter>
</defs>
</svg>
