<svg width="20" height="20" viewBox="0 0 20 20" fill="none" xmlns="http://www.w3.org/2000/svg">
<g clip-path="url(#clip0_154_361)">
<path d="M18.8607 13.1656V12.0903C18.8607 11.0875 18.0449 10.2717 17.0421 10.2717H10.0774C9.99953 10.2717 9.92486 10.3026 9.86981 10.3577C9.81476 10.4127 9.78383 10.4874 9.78383 10.5653C9.78383 10.6431 9.81476 10.7178 9.86981 10.7728C9.92486 10.8279 9.99953 10.8588 10.0774 10.8588H17.0421C17.7212 10.8588 18.2736 11.4112 18.2736 12.0903V13.1656C17.6234 13.3015 17.1334 13.8791 17.1334 14.569V15.6592H7.75422V14.569C7.75422 13.879 7.26426 13.3015 6.61402 13.1656V12.0903C6.61402 11.4112 7.16648 10.8588 7.84551 10.8588H8.90324C8.9811 10.8588 9.05576 10.8279 9.11082 10.7728C9.16587 10.7178 9.1968 10.6431 9.1968 10.5653C9.1968 10.4874 9.16587 10.4127 9.11082 10.3577C9.05576 10.3026 8.9811 10.2717 8.90324 10.2717H7.84551C6.84273 10.2717 6.02695 11.0875 6.02695 12.0903V13.1656C5.37672 13.3014 4.88672 13.879 4.88672 14.569V18.7497C4.88671 18.7883 4.8943 18.8265 4.90905 18.8621C4.9238 18.8977 4.94543 18.9301 4.97269 18.9573C4.99995 18.9846 5.03231 19.0062 5.06793 19.021C5.10355 19.0357 5.14172 19.0433 5.18027 19.0433H14.2343C14.3964 19.0433 14.5278 18.9119 14.5278 18.7497C14.5278 18.5876 14.3964 18.4562 14.2343 18.4562H7.75422V16.2463H17.1334V18.4562H15.4084C15.2463 18.4562 15.1148 18.5876 15.1148 18.7497C15.1148 18.9119 15.2463 19.0433 15.4084 19.0433H19.7074C19.7459 19.0433 19.7841 19.0357 19.8197 19.021C19.8553 19.0062 19.8877 18.9846 19.915 18.9573C19.9422 18.9301 19.9639 18.8977 19.9786 18.8621C19.9934 18.8265 20.0009 18.7883 20.0009 18.7497V14.569C20.0009 13.879 19.5109 13.3015 18.8607 13.1656ZM5.47379 14.569C5.47379 14.1022 5.85359 13.7224 6.32047 13.7224C6.78734 13.7224 7.16715 14.1022 7.16715 14.569V18.4562H5.47379V14.569ZM19.4138 18.4562H17.7205V14.569C17.7205 14.1022 18.1003 13.7224 18.5671 13.7224C19.034 13.7224 19.4138 14.1022 19.4138 14.569V18.4562H19.4138ZM7.48059 8.17693C7.49492 8.3249 7.62387 8.44182 7.77269 8.44182H17.1149C17.2746 8.44182 17.4085 8.30795 17.4085 8.14826V1.2501C17.4085 1.09041 17.2746 0.956543 17.1149 0.956543H15.4084C15.2463 0.956543 15.1148 1.08795 15.1148 1.2501C15.1148 1.41225 15.2463 1.54365 15.4084 1.54365H16.4062L15.8628 2.08709H9.02477L8.48133 1.54365H14.2342C14.3963 1.54365 14.5277 1.41225 14.5277 1.2501C14.5277 1.08795 14.3963 0.956543 14.2342 0.956543H7.77266C7.61285 0.956543 7.4791 1.09061 7.4791 1.2501V8.14826C7.47914 8.15771 7.47965 8.16752 7.48059 8.17693ZM8.48133 7.85475L9.02477 7.31127H15.8628L16.4062 7.85475H8.48133ZM15.6909 6.72416H13.0238L12.5345 6.18064L14.1214 4.41791C14.2158 4.31303 14.3836 4.31455 14.4776 4.41893L15.6909 5.75361V6.72416ZM12.2338 6.72416H9.19676V6.51006L10.4814 5.08311C10.5541 5.0024 10.6838 5.00236 10.7564 5.08311L12.2338 6.72416ZM16.8214 1.95881V7.43955L16.2779 6.89611V2.50225L16.8214 1.95881ZM15.6909 4.88084L14.913 4.0251C14.5897 3.66607 14.0084 3.66607 13.6851 4.0251L12.1395 5.74189L11.1927 4.69029C11.1203 4.60993 11.0318 4.54566 10.933 4.50165C10.8341 4.45763 10.7271 4.43486 10.6189 4.43479C10.4019 4.43479 10.1903 4.529 10.0451 4.69029L9.19676 5.6326V2.67416H15.6909V4.88084ZM8.60965 2.50225V6.89615L8.06621 7.43959V1.95881L8.60965 2.50225Z" fill="black" fill-opacity="0.65"/>
<path d="M3.30831 17.3985H3.0203V7.23914H3.77428V10.5605C3.77428 10.6384 3.80521 10.713 3.86026 10.7681C3.91532 10.8231 3.98998 10.8541 4.06784 10.8541C4.14569 10.8541 4.22036 10.8231 4.27541 10.7681C4.33046 10.713 4.36139 10.6384 4.36139 10.5605V7.23914H5.1601C5.34561 7.23914 5.48764 7.06113 5.44628 6.88016L4.4169 2.37754C4.40208 2.31273 4.3657 2.25487 4.31371 2.21342C4.26173 2.17198 4.19721 2.14941 4.13073 2.14941H1.32276C1.25628 2.14941 1.19176 2.17198 1.13977 2.21342C1.08779 2.25487 1.05141 2.31273 1.03659 2.37754L0.00721297 6.88016C-0.0341542 7.06113 0.107877 7.23914 0.293385 7.23914H2.43323V17.3984H2.14522C1.4244 17.3984 0.837994 17.9848 0.837994 18.7056V18.7497C0.837994 18.7883 0.845587 18.8265 0.86034 18.8621C0.875092 18.8977 0.896715 18.93 0.923975 18.9573C0.951234 18.9846 0.983595 19.0062 1.01921 19.0209C1.05483 19.0357 1.093 19.0433 1.13155 19.0433H4.32198C4.36053 19.0433 4.3987 19.0357 4.43432 19.0209C4.46993 19.0062 4.50229 18.9846 4.52955 18.9573C4.55681 18.93 4.57844 18.8977 4.59319 18.8621C4.60794 18.8265 4.61553 18.7883 4.61553 18.7497V18.7056C4.61549 17.9849 4.02909 17.3985 3.30831 17.3985ZM1.55678 2.73652H3.89674L4.7919 6.65207H0.661588L1.55678 2.73652ZM1.4696 18.4562C1.57128 18.1817 1.83573 17.9855 2.14518 17.9855H3.30827C3.61772 17.9855 3.88217 18.1817 3.98385 18.4562H1.4696ZM12.1386 4.65242C12.5957 4.65242 12.9675 4.28055 12.9675 3.82348C12.9675 3.36637 12.5957 2.99453 12.1386 2.99453C11.6815 2.99453 11.3096 3.36641 11.3096 3.82348C11.3096 4.28055 11.6815 4.65242 12.1386 4.65242ZM12.1386 3.5816C12.2719 3.5816 12.3805 3.69012 12.3805 3.82348C12.3805 3.95684 12.2719 4.06535 12.1386 4.06535C12.0052 4.06535 11.8967 3.95684 11.8967 3.82348C11.8968 3.75935 11.9223 3.69787 11.9676 3.65252C12.013 3.60718 12.0745 3.58167 12.1386 3.5816Z" fill="black" fill-opacity="0.65"/>
</g>
<defs>
<clipPath id="clip0_154_361">
<rect width="20" height="20" fill="white"/>
</clipPath>
</defs>
</svg>
