<svg width="21" height="20" viewBox="0 0 21 20" fill="none" xmlns="http://www.w3.org/2000/svg">
<g clip-path="url(#clip0_115_245)">
<path d="M18.4108 11.25H19.4167V12.5H19.2018C19.0716 12.8711 18.8893 13.2096 18.6549 13.5156C18.4206 13.8216 18.1439 14.0853 17.8249 14.3066C17.5058 14.528 17.1673 14.6973 16.8092 14.8145C16.4512 14.9316 16.0703 14.9935 15.6667 15C15.276 15 14.8952 14.9414 14.5241 14.8242C14.153 14.707 13.8112 14.5378 13.4987 14.3164C13.1862 14.0951 12.9128 13.8314 12.6784 13.5254C12.444 13.2194 12.2617 12.8776 12.1315 12.5H11.9167V11.25H12.9225L14.7487 5.78125L10.6667 4.42383V16.2695C11.7669 16.3411 12.7988 16.5853 13.7624 17.002C14.7259 17.4186 15.6113 18.0013 16.4186 18.75H18.1667V20H1.91666V18.75H3.6647C4.46548 18.0078 5.3509 17.4284 6.32095 17.0117C7.29101 16.5951 8.32291 16.3477 9.41666 16.2695V4.00391L5.569 2.72461L7.1608 7.5H8.16666V8.75H7.95181C7.8216 9.12109 7.63931 9.45964 7.40494 9.76562C7.17056 10.0716 6.89387 10.3353 6.57486 10.5566C6.25585 10.778 5.91731 10.9473 5.55923 11.0645C5.20116 11.1816 4.8203 11.2435 4.41666 11.25C4.02603 11.25 3.64517 11.1914 3.27408 11.0742C2.90298 10.957 2.56119 10.7878 2.24869 10.5664C1.93619 10.3451 1.66275 10.0814 1.42838 9.77539C1.194 9.4694 1.01171 9.1276 0.8815 8.75H0.666656V7.5H1.67252L3.49869 2.03125L0.940094 1.18164L1.34048 0L9.41666 2.68555V0H10.6667V3.10547L19.1335 5.91797L18.7331 7.10938L16.8092 6.46484L18.4108 11.25ZM6.58463 8.75H2.24869C2.47655 9.14062 2.78254 9.44661 3.16666 9.66797C3.55077 9.88932 3.96744 10 4.41666 10C4.86588 10 5.28254 9.88932 5.66666 9.66797C6.05077 9.44661 6.35676 9.14062 6.58463 8.75ZM5.84244 7.5L4.41666 3.22266L2.99088 7.5H5.84244ZM10.0417 17.5C9.27343 17.5 8.52147 17.6042 7.7858 17.8125C7.05012 18.0208 6.35676 18.3333 5.70572 18.75H14.3776C13.7331 18.3398 13.0397 18.0306 12.2975 17.8223C11.5553 17.6139 10.8034 17.5065 10.0417 17.5ZM15.6667 6.97266L14.2409 11.25H17.0924L15.6667 6.97266ZM17.8346 12.5H13.4987C13.7266 12.8906 14.0325 13.1966 14.4167 13.418C14.8008 13.6393 15.2174 13.75 15.6667 13.75C16.1159 13.75 16.5325 13.6393 16.9167 13.418C17.3008 13.1966 17.6068 12.8906 17.8346 12.5Z" fill="black" fill-opacity="0.85"/>
</g>
<defs>
<clipPath id="clip0_115_245">
<rect width="20" height="20" fill="white" transform="translate(0.666656)"/>
</clipPath>
</defs>
</svg>
