<svg width="214" height="200" viewBox="0 0 214 200" fill="none" xmlns="http://www.w3.org/2000/svg">
<g filter="url(#filter0_di_115_41)">
<path fill-rule="evenodd" clip-rule="evenodd" d="M116.8 182.1C116.8 181.1 117.6 180.2 118.7 180.2V180.1H198.2C200.3 180.1 202.1 178.4 202.1 176.2V38.4H169.9C168.9 38.4 168 37.5 168 36.5C168 35.5 168.8 34.6 169.9 34.6H202.1V22.8C202.1 20.7 200.4 18.9 198.2 18.9H15.8C13.7 18.9 11.9 20.6 11.9 22.8V34.7H157.4C158.4 34.7 159.3 35.6 159.3 36.6C159.3 37.6 158.5 38.5 157.4 38.5H56.1V103.6C56.1 104.6 55.2 105.5 54.2 105.5C53.2 105.5 52.3 104.7 52.3 103.6V38.5H11.9V131.8H52.3V116.2C52.3 115.2 53.2 114.3 54.2 114.3C55.2 114.3 56.1 115.1 56.1 116.2V180.3H106.2C107.2 180.3 108.1 181.2 108.1 182.2C108.1 183.2 107.3 184.1 106.2 184.1H15.8C11.5 184.1 8 180.6 8 176.3V22.8C8 18.5 11.5 15 15.8 15H198.2C202.5 15 206 18.5 206 22.8V176.2C206 180.5 202.5 184 198.2 184H118.7C117.7 184 116.8 183.1 116.8 182.1ZM15.8 180.2H52.3V135.5H11.9V176.3C11.9 178.4 13.6 180.2 15.8 180.2ZM19.7 157.5C19.7 151 25 145.7 31.5 145.7C33.8 145.7 36 146.4 38 147.7L38.8 148.2L41.9 143.6C42.2 143.2 42.6 142.9 43.1 142.8C43.6 142.7 44.1 142.8 44.5 143.1C44.9 143.4 45.2 143.8 45.3 144.3C45.4 144.8 45.3 145.3 45 145.7L41.4 151L41.7 151.5C42.7 153.4 43.3 155.4 43.3 157.5C43.3 164 38 169.3 31.5 169.3C25 169.3 19.7 164 19.7 157.5ZM179.4 164.8L171.3 156.7L168.4 159.7C168 160.1 167.6 160.3 167.1 160.4C166.6 160.4 166.1 160.4 165.6 160.2C165.2 160 164.8 159.7 164.5 159.3C164.2 158.9 164.1 158.4 164.1 157.9L164.2 141.6C164.2 139.9 165.5 138.6 167.2 138.6L183.5 138.7C184 138.7 184.5 138.8 184.9 139.1C185.3 139.3 185.6 139.7 185.8 140.2C186 140.7 186 141.2 185.9 141.7C185.8 142.2 185.6 142.6 185.2 143L182.4 145.8L190.5 153.8C191.1 154.3 191.4 155.1 191.4 155.9C191.4 156.7 191.1 157.4 190.5 158L183.7 164.8C182.5 165.9 180.5 165.9 179.4 164.8ZM23.5 157.5C23.5 161.9 27.1 165.5 31.5 165.5C35.9 165.5 39.5 161.9 39.7 157.7V157.2L39.5 154.2L35.2 160.5C34.9 160.9 34.5 161.2 34 161.3C33.5 161.4 33 161.3 32.6 161.1L29.4 159.3C29.2 159.2 29 159 28.8 158.8C28.75 158.7 28.7 158.575 28.65 158.45C28.6 158.325 28.55 158.2 28.5 158.1C28.4 157.8 28.4 157.6 28.4 157.3C28.4 157.1 28.5 156.8 28.6 156.6C28.7 156.4 28.9 156.2 29.1 156C29.2 155.95 29.325 155.9 29.45 155.85C29.575 155.8 29.7 155.75 29.8 155.7C30.1 155.6 30.2999 155.6 30.5999 155.6H30.6C30.8 155.6 31.1 155.7 31.3 155.8L32.9 156.7L36.6 151.2L35.7 150.7C34.4 149.9 33 149.5 31.5 149.5C27.1 149.5 23.5 153.1 23.5 157.5ZM145.6 138.3C145.8 138.2 146 138.2 146.3 138.2C147.4 138.2 148.2 139.1 148.3 140V157.2H153.7C154.7 157.2 155.6 158 155.6 159.1C155.6 160.1 154.8 161 153.7 161H146.4C145.4 161 144.5 160.2 144.5 159.1V140C144.5 139.8 144.5 139.5 144.6 139.3L144.6 139.3C144.7 139.1 144.8 138.9 145 138.7C145.2 138.5 145.4 138.4 145.6 138.3L145.6 138.3ZM127.8 138.3C128 138.2 128.2 138.2 128.5 138.2C129.6 138.2 130.5 139.1 130.5 140V157.2H135.9C136.9 157.2 137.8 158 137.8 159.1C137.8 160.1 137 161 135.9 161H128.6C127.6 161 126.7 160.2 126.7 159.1V140C126.7 139.8 126.7 139.5 126.8 139.3C126.9 139.1 127 138.9 127.2 138.7C127.4 138.5 127.6 138.4 127.8 138.3L127.8 138.3ZM105.2 141.2C105.2 139.6 106.5 138.2 108.2 138.2V138.4H117.9C118.9 138.4 119.8 139.3 119.8 140.3C119.8 141.3 119 142.2 117.9 142.2H109V147.9H111.6C112.6 147.9 113.5 148.8 113.5 149.8C113.5 150.8 112.7 151.7 111.6 151.7H109V157.4H117.9C118.9 157.4 119.8 158.3 119.8 159.3C119.8 160.3 119 161.2 117.9 161.2H108.2C107.4 161.2 106.7 160.8 106.1 160.3C105.5 159.8 105.2 159 105.2 158.2V141.2ZM83.3 159.3C83.3 158.3 84.1 157.4 85.2 157.4V157.3H93V151.6H86.3C84.7 151.6 83.3 150.3 83.3 148.6V141.3C83.3 139.7 84.6 138.3 86.3 138.3H94.9C95.9 138.3 96.8 139.1 96.8 140.2C96.8 141.2 96 142.1 94.9 142.1H87.1V147.8H93.8C95.4 147.8 96.8 149.1 96.8 150.8V158.2C96.8 159.8 95.5 161.2 93.8 161.2H85.2C84.2 161.2 83.3 160.4 83.3 159.3ZM172.7 152.6L181.6 161.5L187.1 155.7L178.3 146.9C178.1 146.7 178 146.5 177.9 146.3C177.8 146.1 177.8 145.9 177.8 145.6V145.6C177.8 145.4 177.8 145.1 177.9 144.9C178 144.7 178.1 144.5 178.3 144.3L180.2 142.5L168 142.4L167.9 154.6L170 152.6C170.6 152.1 171.4 151.9 172.1 152.2C172.3 152.3 172.5 152.4 172.7 152.6ZM87.6 127.6C87.6 126.6 88.4 125.7 89.5 125.7H92.5V99.6L91.2 99.9C89.1 100.5 86.8 99.8 85.5 98.1L82.6 94.5C82.1 93.9 81.8 93.3 81.6 92.6C81.4 91.9 81.3 91.2 81.4 90.5C81.4 89.8 81.7 89.1 82 88.5C82.4 87.9 82.8 87.4 83.4 86.9L87.5 83.6V61L87.2 60.7C86.4 59.8 86 58.7 86 57.6V52C86 49.5 88 47.5 90.5 47.5H103.5C106 47.5 108 49.5 108 52V57.5C108 58.7 107.6 59.8 106.8 60.6L106.5 60.9V67.9L118.5 58.2C121.3 55.9 125.5 55.9 128.3 58.2L163.6 86.8C164.2 87.2 164.7 87.8 165 88.4C165.3 89.1 165.5 89.8 165.6 90.5C165.7 91.2 165.6 91.9 165.4 92.6C165.2 93.3 164.9 93.9 164.4 94.5L161.5 98.1C160.1 99.7 157.9 100.5 155.8 99.9L154.5 99.6V125.7H157C158 125.7 158.9 126.6 158.9 127.6C158.9 128.6 158.1 129.5 157 129.5H89.5C88.5 129.5 87.6 128.7 87.6 127.6ZM135.3 125.7H150.7V96.4L123.4 74.2L96.1 96.4V125.7H111.5V122.3C111.5 115.8 116.8 110.4 123.4 110.4C129.9 110.4 135.3 115.7 135.3 122.3V125.7ZM115.3 122.3V125.7H131.5V122.3C131.5 117.8 127.9 114.2 123.4 114.2C118.9 114.2 115.3 117.8 115.3 122.3ZM20.9 112.3C20.9 111.3 21.7 110.4 22.8 110.4H40.2C41.2 110.4 42.1 111.3 42.1 112.3C42.1 113.3 41.3 114.2 40.2 114.2H22.8C21.8 114.2 20.9 113.3 20.9 112.3ZM20.9 99.1C20.9 98.1 21.7 97.2 22.8 97.2H40.2C41.2 97.2 42.1 98.1 42.1 99.1C42.1 100.1 41.3 101 40.2 101H22.8C21.8 101 20.9 100.1 20.9 99.1ZM111.5 95.1C111.5 94.1 112.3 93.2 113.4 93.2H133.4C134.4 93.2 135.3 94.1 135.3 95.1C135.3 96.1 134.5 97 133.4 97H113.4C112.4 97 111.5 96.1 111.5 95.1ZM156.2 95.9C156.5 96.2 156.8 96.3 157.2 96.3H157.4C157.8 96.2 158.2 96 158.5 95.7L161.4 92.1C161.7 91.8 161.8 91.3 161.8 90.9C161.8 90.5 161.5 90.1 161.2 89.8L125.9 61.2C124.5 60.1 122.3 60.1 120.9 61.2L85.6 89.8C85.3 90.1 85 90.5 85 90.9V91.5L85.3 92.1L88.2 95.7C88.5 96 88.9 96.3 89.3 96.3C89.7 96.3 90.2 96.2 90.5 95.9L122.2 70.3C122.9 69.7 123.9 69.7 124.6 70.3L156.2 95.9ZM20.9 86C20.9 85 21.7 84.1 22.8 84.1H40.2C41.2 84.1 42.1 85 42.1 86C42.1 87 41.3 87.9 40.2 87.9H22.8C21.8 87.9 20.9 87 20.9 86ZM91.1 62.1V80.4L102.6 71V62.1H91.1ZM20.9 72.8C20.9 71.8 21.7 70.9 22.8 70.9H40.2C41.2 70.9 42.1 71.8 42.1 72.8C42.1 73.8 41.3 74.7 40.2 74.7H22.8C21.8 74.7 20.9 73.8 20.9 72.8ZM20.9 59.7C20.9 58.7 21.7 57.8 22.8 57.8H40.2C41.2 57.8 42.1 58.7 42.1 59.7C42.1 60.7 41.3 61.6 40.2 61.6H22.8C21.8 61.6 20.9 60.7 20.9 59.7ZM89.7 58.3H104V51.3H89.7V58.3ZM54.5 26.6C54.5 25.6 55.3 24.7 56.4 24.7H58C59 24.7 59.9 25.5 59.9 26.6C59.9 27.6 59.1 28.5 58 28.5H56.4C55.4 28.5 54.5 27.7 54.5 26.6ZM38.5 26.6C38.5 25.6 39.3 24.7 40.4 24.7H42C43 24.7 43.9 25.5 43.9 26.6C43.9 27.6 43.1 28.5 42 28.5H40.4C39.4 28.5 38.5 27.7 38.5 26.6ZM22.6 26.6C22.6 25.6 23.4 24.7 24.5 24.7H26.1C27.1 24.7 28 25.5 28 26.6C28 27.6 27.2 28.5 26.1 28.5H24.5C23.5 28.5 22.6 27.7 22.6 26.6Z" fill="white"/>
</g>
<defs>
<filter id="filter0_di_115_41" x="-1" y="-7" width="216" height="216" filterUnits="userSpaceOnUse" color-interpolation-filters="sRGB">
<feFlood flood-opacity="0" result="BackgroundImageFix"/>
<feColorMatrix in="SourceAlpha" type="matrix" values="0 0 0 0 0 0 0 0 0 0 0 0 0 0 0 0 0 0 127 0" result="hardAlpha"/>
<feOffset dy="1"/>
<feGaussianBlur stdDeviation="4"/>
<feComposite in2="hardAlpha" operator="out"/>
<feColorMatrix type="matrix" values="0 0 0 0 1 0 0 0 0 1 0 0 0 0 1 0 0 0 0.8 0"/>
<feBlend mode="normal" in2="BackgroundImageFix" result="effect1_dropShadow_115_41"/>
<feBlend mode="normal" in="SourceGraphic" in2="effect1_dropShadow_115_41" result="shape"/>
<feColorMatrix in="SourceAlpha" type="matrix" values="0 0 0 0 0 0 0 0 0 0 0 0 0 0 0 0 0 0 127 0" result="hardAlpha"/>
<feOffset/>
<feGaussianBlur stdDeviation="2"/>
<feComposite in2="hardAlpha" operator="arithmetic" k2="-1" k3="1"/>
<feColorMatrix type="matrix" values="0 0 0 0 0 0 0 0 0 0 0 0 0 0 0 0 0 0 0.02 0"/>
<feBlend mode="normal" in2="shape" result="effect2_innerShadow_115_41"/>
</filter>
</defs>
</svg>
