<svg width="20" height="20" viewBox="0 0 20 20" fill="none" xmlns="http://www.w3.org/2000/svg">
<path fill-rule="evenodd" clip-rule="evenodd" d="M1.6434 0.114412C1.79595 0.26696 1.79595 0.514291 1.6434 0.666839L1.33368 0.976559H15.0725L14.7628 0.666839C14.6102 0.514291 14.6102 0.26696 14.7628 0.114412C14.9153 -0.0381372 15.1627 -0.0381372 15.3152 0.114412L16.2918 1.09097C16.4443 1.24352 16.4443 1.49085 16.2918 1.6434L15.3152 2.61996C15.1627 2.77251 14.9153 2.77251 14.7628 2.61996C14.6102 2.46741 14.6102 2.22008 14.7628 2.06753L15.0725 1.75781H1.33368L1.6434 2.06753C1.79595 2.22008 1.79595 2.46741 1.6434 2.61996C1.49085 2.77251 1.24352 2.77251 1.09097 2.61996L0.114412 1.6434C-0.0381372 1.49085 -0.0381372 1.24352 0.114412 1.09097L1.09097 0.114412C1.24352 -0.0381372 1.49085 -0.0381372 1.6434 0.114412ZM0 3.98444C0 3.7687 0.174889 3.59381 0.390625 3.59381H16.0156C16.2313 3.59381 16.4062 3.7687 16.4062 3.98444V19.6094C16.4062 19.8251 16.2313 20 16.0156 20H0.390625C0.174889 20 0 19.8251 0 19.6094V3.98444ZM15.6249 4.37506H0.781251V19.2188H15.6249V4.37506ZM18.3566 3.70823C18.5092 3.55568 18.7565 3.55568 18.909 3.70823L19.8856 4.68478C20.0381 4.83733 20.0381 5.08466 19.8856 5.23721C19.733 5.38976 19.4857 5.38976 19.3332 5.23721L19.0234 4.92749V18.6663L19.3332 18.3566C19.4857 18.2041 19.733 18.2041 19.8856 18.3566C20.0381 18.5092 20.0381 18.7565 19.8856 18.909L18.909 19.8856C18.7565 20.0381 18.5092 20.0381 18.3566 19.8856L17.38 18.909C17.2275 18.7565 17.2275 18.5092 17.38 18.3566C17.5326 18.2041 17.7799 18.2041 17.9325 18.3566L18.2422 18.6663V4.92749L17.9325 5.23721C17.7799 5.38976 17.5326 5.38976 17.38 5.23721C17.2275 5.08466 17.2275 4.83733 17.38 4.68478L18.3566 3.70823Z" fill="black" fill-opacity="0.65"/>
<path fill-rule="evenodd" clip-rule="evenodd" d="M2.34375 6.32813C2.34375 6.11239 2.51864 5.9375 2.73438 5.9375H13.6718C13.8876 5.9375 14.0625 6.11239 14.0625 6.32813V17.2656C14.0625 17.4813 13.8876 17.6562 13.6718 17.6562H2.73438C2.51864 17.6562 2.34375 17.4813 2.34375 17.2656V6.32813ZM3.67747 6.71875L4.50195 7.54323C4.6545 7.69578 4.6545 7.94311 4.50195 8.09566C4.3494 8.24821 4.10207 8.24821 3.94952 8.09566L3.125 7.27114V16.3225L7.65068 11.7969L6.43541 10.5816C6.28286 10.429 6.28286 10.1817 6.43541 10.0292C6.58796 9.87661 6.83529 9.87661 6.98784 10.0292L8.2031 11.2444L12.7288 6.71875H3.67747ZM13.2812 7.27118V16.3225L8.75553 11.7969L13.2812 7.27118ZM8.2031 12.3493L3.67743 16.875H12.7288L8.2031 12.3493Z" fill="black" fill-opacity="0.65"/>
<path fill-rule="evenodd" clip-rule="evenodd" d="M5.07812 9.06249C5.07812 8.84676 5.25301 8.67188 5.46874 8.67188H5.46906C5.68479 8.67188 5.85968 8.84676 5.85968 9.06249C5.85968 9.27823 5.68479 9.45311 5.46906 9.45311H5.46874C5.25301 9.45311 5.07812 9.27823 5.07812 9.06249Z" fill="black" fill-opacity="0.65"/>
</svg>
