<svg width="28" height="20" viewBox="0 0 28 20" fill="none" xmlns="http://www.w3.org/2000/svg">
<path d="M11.3327 14.0001L18.2527 10.0001L11.3327 6.00008V14.0001ZM26.746 3.56008C26.9193 4.18675 27.0393 5.02675 27.1193 6.09341C27.2127 7.16008 27.2527 8.08008 27.2527 8.88008L27.3327 10.0001C27.3327 12.9201 27.1193 15.0667 26.746 16.4401C26.4127 17.6401 25.6393 18.4134 24.4393 18.7467C23.8127 18.9201 22.666 19.0401 20.906 19.1201C19.1727 19.2134 17.586 19.2534 16.1193 19.2534L13.9993 19.3334C8.41268 19.3334 4.93268 19.1201 3.55935 18.7467C2.35935 18.4134 1.58602 17.6401 1.25268 16.4401C1.07935 15.8134 0.959349 14.9734 0.879349 13.9067C0.786016 12.8401 0.746016 11.9201 0.746016 11.1201L0.666016 10.0001C0.666016 7.08008 0.879349 4.93341 1.25268 3.56008C1.58602 2.36008 2.35935 1.58675 3.55935 1.25341C4.18602 1.08008 5.33268 0.960081 7.09268 0.880081C8.82602 0.786748 10.4127 0.746748 11.8793 0.746748L13.9993 0.666748C19.586 0.666748 23.066 0.880081 24.4393 1.25341C25.6393 1.58675 26.4127 2.36008 26.746 3.56008Z" fill="#001336" fill-opacity="0.8"/>
</svg>
